<svg width="154" height="48" viewBox="0 0 154 48" fill="none" xmlns="http://www.w3.org/2000/svg">
<path fill-rule="evenodd" clip-rule="evenodd" d="M0 0H15.625V31.437L23.375 23.625L39.125 39.375L46.875 47.125L31.25 47.125L15.5942 31.5316L0 47.5V0ZM23.375 0.25H39L23.375 23.5625V0.25Z" fill="#0F0F0F"/>
<path d="M74.995 2.978V28.25H68.839V17.846H59.263V28.25H53.107V2.978H59.263V12.878H68.839V2.978H74.995ZM85.595 7.91V13.022H93.839V17.774H85.595V23.318H94.919V28.25H79.439V2.978H94.919V7.91H85.595ZM118.176 11.114C118.176 12.578 117.84 13.922 117.168 15.146C116.496 16.346 115.464 17.318 114.072 18.062C112.68 18.806 110.952 19.178 108.888 19.178H105.072V28.25H98.9156V2.978H108.888C110.904 2.978 112.608 3.326 114 4.022C115.392 4.718 116.436 5.678 117.132 6.902C117.828 8.126 118.176 9.53 118.176 11.114ZM108.42 14.282C109.596 14.282 110.472 14.006 111.048 13.454C111.624 12.902 111.912 12.122 111.912 11.114C111.912 10.106 111.624 9.326 111.048 8.774C110.472 8.222 109.596 7.946 108.42 7.946H105.072V14.282H108.42ZM134.268 28.25L129.012 18.71H127.536V28.25H121.38V2.978H131.712C133.704 2.978 135.396 3.326 136.788 4.022C138.204 4.718 139.26 5.678 139.956 6.902C140.652 8.102 141 9.446 141 10.934C141 12.614 140.52 14.114 139.56 15.434C138.624 16.754 137.232 17.69 135.384 18.242L141.216 28.25H134.268ZM127.536 14.354H131.352C132.48 14.354 133.32 14.078 133.872 13.526C134.448 12.974 134.736 12.194 134.736 11.186C134.736 10.226 134.448 9.47 133.872 8.918C133.32 8.366 132.48 8.09 131.352 8.09H127.536V14.354ZM151.021 2.978V28.25H144.865V2.978H151.021Z" fill="#0F0F0F"/>
<path d="M56.403 44.306C55.9923 44.306 55.6243 44.2393 55.299 44.106C54.9737 43.9727 54.7123 43.7753 54.515 43.514C54.323 43.2527 54.2217 42.938 54.211 42.57H55.667C55.6883 42.778 55.7603 42.938 55.883 43.05C56.0057 43.1567 56.1657 43.21 56.363 43.21C56.5657 43.21 56.7257 43.1647 56.843 43.074C56.9603 42.978 57.019 42.8473 57.019 42.682C57.019 42.5433 56.971 42.4287 56.875 42.338C56.7843 42.2473 56.6697 42.1727 56.531 42.114C56.3977 42.0553 56.2057 41.9887 55.955 41.914C55.5923 41.802 55.2963 41.69 55.067 41.578C54.8377 41.466 54.6403 41.3007 54.475 41.082C54.3097 40.8633 54.227 40.578 54.227 40.226C54.227 39.7033 54.4163 39.2953 54.795 39.002C55.1737 38.7033 55.667 38.554 56.275 38.554C56.8937 38.554 57.3923 38.7033 57.771 39.002C58.1497 39.2953 58.3523 39.706 58.379 40.234H56.899C56.8883 40.0527 56.8217 39.9113 56.699 39.81C56.5763 39.7033 56.419 39.65 56.227 39.65C56.0617 39.65 55.9283 39.6953 55.827 39.786C55.7257 39.8713 55.675 39.9967 55.675 40.162C55.675 40.3433 55.7603 40.4847 55.931 40.586C56.1017 40.6873 56.3683 40.7967 56.731 40.914C57.0937 41.0367 57.387 41.154 57.611 41.266C57.8403 41.378 58.0377 41.5407 58.203 41.754C58.3683 41.9673 58.451 42.242 58.451 42.578C58.451 42.898 58.3683 43.1887 58.203 43.45C58.043 43.7113 57.8083 43.9193 57.499 44.074C57.1897 44.2287 56.8243 44.306 56.403 44.306ZM71.2609 39.73V40.866H73.0929V41.922H71.2609V43.154H73.3329V44.25H69.8929V38.634H73.3329V39.73H71.2609ZM87.685 44.25L86.517 42.13H86.189V44.25H84.821V38.634H87.117C87.5597 38.634 87.9357 38.7113 88.245 38.866C88.5597 39.0207 88.7943 39.234 88.949 39.506C89.1037 39.7727 89.181 40.0713 89.181 40.402C89.181 40.7753 89.0743 41.1087 88.861 41.402C88.653 41.6953 88.3437 41.9033 87.933 42.026L89.229 44.25H87.685ZM86.189 41.162H87.037C87.2877 41.162 87.4743 41.1007 87.597 40.978C87.725 40.8553 87.789 40.682 87.789 40.458C87.789 40.2447 87.725 40.0767 87.597 39.954C87.4743 39.8313 87.2877 39.77 87.037 39.77H86.189V41.162ZM105.912 38.634L103.92 44.25H102.208L100.216 38.634H101.672L103.064 42.874L104.464 38.634H105.912ZM118.452 38.634V44.25H117.084V38.634H118.452ZM129.811 41.434C129.811 40.8793 129.931 40.386 130.171 39.954C130.411 39.5167 130.744 39.178 131.171 38.938C131.603 38.6927 132.091 38.57 132.635 38.57C133.302 38.57 133.872 38.746 134.347 39.098C134.822 39.45 135.139 39.93 135.299 40.538H133.795C133.683 40.3033 133.523 40.1247 133.315 40.002C133.112 39.8793 132.88 39.818 132.619 39.818C132.198 39.818 131.856 39.9647 131.595 40.258C131.334 40.5513 131.203 40.9433 131.203 41.434C131.203 41.9247 131.334 42.3167 131.595 42.61C131.856 42.9033 132.198 43.05 132.619 43.05C132.88 43.05 133.112 42.9887 133.315 42.866C133.523 42.7433 133.683 42.5647 133.795 42.33H135.299C135.139 42.938 134.822 43.418 134.347 43.77C133.872 44.1167 133.302 44.29 132.635 44.29C132.091 44.29 131.603 44.17 131.171 43.93C130.744 43.6847 130.411 43.346 130.171 42.914C129.931 42.482 129.811 41.9887 129.811 41.434ZM148.105 39.73V40.866H149.937V41.922H148.105V43.154H150.177V44.25H146.737V38.634H150.177V39.73H148.105Z" fill="#0F0F0F"/>
</svg>
