<svg width="587" height="427" viewBox="0 0 587 427" fill="none" xmlns="http://www.w3.org/2000/svg">
<g clip-path="url(#clip0_15_2536)">
<path d="M341.927 75.2623C352.928 75.2623 361.847 66.3439 361.847 55.3425C361.847 44.341 352.928 35.4226 341.927 35.4226C330.925 35.4226 322.007 44.341 322.007 55.3425C322.007 66.3439 330.925 75.2623 341.927 75.2623Z" fill="#E3B201"/>
<path d="M496.451 370.896C526.06 348.344 540.202 310.447 531.348 274.297C531.128 273.398 530.896 272.502 530.652 271.608C524.782 250.149 510.261 229.755 489.097 222.898C471.327 217.141 451.93 221.568 433.391 219.279C396.998 214.784 368.783 185.338 348.931 154.508C329.078 123.677 313.821 89.167 287.441 63.6966C243.958 21.7128 173.026 12.6737 119.114 40.002C65.2015 67.3303 30.8598 127.96 32.3244 188.386C33.789 248.812 69.661 306.583 121.756 337.234C140.894 348.494 163.028 356.471 185.056 353.679C204.17 351.258 221.537 340.987 240.561 337.938C270.47 333.145 300.189 346.668 326.059 362.426C351.929 378.185 376.917 396.863 406.314 404.169C434.859 411.263 470.223 390.873 496.451 370.896Z" fill="#E3B201"/>
<path d="M453.911 41.271C453.262 40.8383 452.605 40.428 451.956 40.0102C433.194 28.0107 413.084 18.2624 392.042 10.9668L387.162 78.2746H356.232V1.14144C354.284 0.73858 352.322 0.3581 350.36 0V78.2746H313.603C293.367 78.2746 273.961 70.2362 259.652 55.9276C245.344 41.619 237.305 22.2125 237.305 1.9771C235.336 2.40234 233.381 2.85736 231.426 3.34228V78.2747H201.488L196.84 14.0927C175.216 22.3859 154.686 33.2919 135.709 46.5679C135.381 46.7917 135.053 47.023 134.732 47.2468C133.083 48.4032 131.457 49.5819 129.838 50.7756V307.555H218.072L216.513 285.958L207.933 167.374H380.709L372.13 285.958L370.57 307.555H457.827V43.8672C456.529 42.9869 455.224 42.1215 453.911 41.271ZM231.426 147.791H206.516L201.913 84.1534H231.426V147.791ZM350.36 147.791H308.522V146.53C308.522 145.924 308.403 145.324 308.171 144.764C307.938 144.204 307.598 143.695 307.169 143.267C306.74 142.839 306.231 142.499 305.671 142.268C305.111 142.037 304.51 141.918 303.904 141.919H285.716C285.11 141.919 284.511 142.038 283.951 142.27C283.392 142.501 282.883 142.841 282.455 143.269C282.027 143.697 281.687 144.206 281.456 144.765C281.224 145.325 281.105 145.924 281.105 146.53V147.791H237.305V84.1534H350.36V147.791ZM356.232 147.791V84.1534H386.737L382.134 147.791H356.232Z" fill="#1E1E1E"/>
<path d="M0 323.999C6.48105 331.678 13.491 338.895 20.9787 345.597L566.021 346.343C573.509 339.641 580.519 332.424 587 324.745L0 323.999Z" fill="#1E1E1E"/>
<path d="M369.611 254.841V318.78C369.612 319.595 369.936 320.376 370.512 320.952C371.088 321.528 371.869 321.852 372.684 321.853H467.435C468.25 321.852 469.031 321.528 469.607 320.952C470.183 320.376 470.507 319.595 470.508 318.78V254.841C470.506 254.027 470.181 253.247 469.605 252.671C469.029 252.096 468.249 251.773 467.435 251.771H372.684C371.87 251.773 371.09 252.096 370.514 252.672C369.938 253.247 369.613 254.027 369.611 254.841Z" fill="#1E1E1E"/>
<path d="M371.834 255.637V317.991C371.835 318.426 372.008 318.844 372.316 319.152C372.624 319.459 373.041 319.633 373.476 319.633H466.646C467.081 319.633 467.499 319.459 467.806 319.152C468.114 318.844 468.288 318.426 468.288 317.991V255.637C468.288 255.201 468.115 254.783 467.807 254.474C467.5 254.166 467.082 253.992 466.646 253.991H373.476C373.04 253.992 372.623 254.166 372.315 254.474C372.007 254.783 371.834 255.201 371.834 255.637Z" fill="#E3B201"/>
<path d="M367.63 331.25C367.803 331.467 368.024 331.643 368.275 331.763C368.526 331.883 368.801 331.945 369.08 331.943H470.535C470.813 331.943 471.087 331.881 471.337 331.761C471.587 331.642 471.808 331.468 471.983 331.253C472.158 331.037 472.282 330.785 472.347 330.516C472.413 330.246 472.417 329.965 472.36 329.694L470.785 322.213C470.72 321.908 470.579 321.624 470.376 321.387C470.173 321.15 469.914 320.968 469.623 320.857C469.412 320.774 469.187 320.731 468.96 320.732H370.648C370.422 320.731 370.197 320.774 369.986 320.857C369.694 320.968 369.435 321.15 369.232 321.387C369.029 321.624 368.889 321.908 368.823 322.213L367.248 329.694C367.192 329.965 367.198 330.245 367.264 330.515C367.33 330.784 367.455 331.035 367.63 331.25Z" fill="#0F0F0F"/>
<path d="M465.479 323.954H467.875C468.076 323.954 468.239 323.791 468.239 323.589V322.443C468.239 322.242 468.076 322.079 467.875 322.079H465.479C465.278 322.079 465.114 322.242 465.114 322.443V323.589C465.114 323.791 465.278 323.954 465.479 323.954Z" fill="#1E1E1E"/>
<path d="M459.23 323.954H461.626C461.827 323.954 461.99 323.791 461.99 323.589V322.443C461.99 322.242 461.827 322.079 461.626 322.079H459.23C459.028 322.079 458.865 322.242 458.865 322.443V323.589C458.865 323.791 459.028 323.954 459.23 323.954Z" fill="#1E1E1E"/>
<path d="M452.98 323.954H455.376C455.577 323.954 455.74 323.791 455.74 323.589V322.443C455.74 322.242 455.577 322.079 455.376 322.079H452.98C452.779 322.079 452.615 322.242 452.615 322.443V323.589C452.615 323.791 452.779 323.954 452.98 323.954Z" fill="#1E1E1E"/>
<path d="M446.731 323.954H449.127C449.328 323.954 449.491 323.791 449.491 323.589V322.443C449.491 322.242 449.328 322.079 449.127 322.079H446.731C446.529 322.079 446.366 322.242 446.366 322.443V323.589C446.366 323.791 446.529 323.954 446.731 323.954Z" fill="#1E1E1E"/>
<path d="M440.481 323.954H442.877C443.078 323.954 443.241 323.791 443.241 323.589V322.443C443.241 322.242 443.078 322.079 442.877 322.079H440.481C440.28 322.079 440.116 322.242 440.116 322.443V323.589C440.116 323.791 440.28 323.954 440.481 323.954Z" fill="#1E1E1E"/>
<path d="M434.231 323.954H436.627C436.828 323.954 436.991 323.791 436.991 323.589V322.443C436.991 322.242 436.828 322.079 436.627 322.079H434.231C434.029 322.079 433.866 322.242 433.866 322.443V323.589C433.866 323.791 434.029 323.954 434.231 323.954Z" fill="#1E1E1E"/>
<path d="M427.982 323.954H430.378C430.579 323.954 430.742 323.791 430.742 323.589V322.443C430.742 322.242 430.579 322.079 430.378 322.079H427.982C427.78 322.079 427.617 322.242 427.617 322.443V323.589C427.617 323.791 427.78 323.954 427.982 323.954Z" fill="#1E1E1E"/>
<path d="M421.732 323.954H424.128C424.329 323.954 424.492 323.791 424.492 323.589V322.443C424.492 322.242 424.329 322.079 424.128 322.079H421.732C421.53 322.079 421.367 322.242 421.367 322.443V323.589C421.367 323.791 421.53 323.954 421.732 323.954Z" fill="#1E1E1E"/>
<path d="M415.483 323.954H417.879C418.08 323.954 418.243 323.791 418.243 323.589V322.443C418.243 322.242 418.08 322.079 417.879 322.079H415.483C415.281 322.079 415.118 322.242 415.118 322.443V323.589C415.118 323.791 415.281 323.954 415.483 323.954Z" fill="#1E1E1E"/>
<path d="M409.233 323.954H411.629C411.83 323.954 411.993 323.791 411.993 323.589V322.443C411.993 322.242 411.83 322.079 411.629 322.079H409.233C409.031 322.079 408.868 322.242 408.868 322.443V323.589C408.868 323.791 409.031 323.954 409.233 323.954Z" fill="#1E1E1E"/>
<path d="M402.984 323.954H405.38C405.581 323.954 405.744 323.791 405.744 323.589V322.443C405.744 322.242 405.581 322.079 405.38 322.079H402.984C402.782 322.079 402.619 322.242 402.619 322.443V323.589C402.619 323.791 402.782 323.954 402.984 323.954Z" fill="#1E1E1E"/>
<path d="M396.734 323.954H399.13C399.331 323.954 399.494 323.791 399.494 323.589V322.443C399.494 322.242 399.331 322.079 399.13 322.079H396.734C396.532 322.079 396.369 322.242 396.369 322.443V323.589C396.369 323.791 396.532 323.954 396.734 323.954Z" fill="#1E1E1E"/>
<path d="M390.484 323.954H392.88C393.081 323.954 393.244 323.791 393.244 323.589V322.443C393.244 322.242 393.081 322.079 392.88 322.079H390.484C390.282 322.079 390.119 322.242 390.119 322.443V323.589C390.119 323.791 390.282 323.954 390.484 323.954Z" fill="#1E1E1E"/>
<path d="M384.235 323.954H386.631C386.832 323.954 386.995 323.791 386.995 323.589V322.443C386.995 322.242 386.832 322.079 386.631 322.079H384.235C384.033 322.079 383.87 322.242 383.87 322.443V323.589C383.87 323.791 384.033 323.954 384.235 323.954Z" fill="#1E1E1E"/>
<path d="M377.985 323.954H380.381C380.582 323.954 380.745 323.791 380.745 323.589V322.443C380.745 322.242 380.582 322.079 380.381 322.079H377.985C377.783 322.079 377.62 322.242 377.62 322.443V323.589C377.62 323.791 377.783 323.954 377.985 323.954Z" fill="#1E1E1E"/>
<path d="M371.736 323.954H374.132C374.333 323.954 374.496 323.791 374.496 323.589V322.443C374.496 322.242 374.333 322.079 374.132 322.079H371.736C371.534 322.079 371.371 322.242 371.371 322.443V323.589C371.371 323.791 371.534 323.954 371.736 323.954Z" fill="#1E1E1E"/>
<path d="M465.553 327.079H467.949C468.15 327.079 468.313 326.916 468.313 326.714V325.568C468.313 325.367 468.15 325.204 467.949 325.204H465.553C465.352 325.204 465.189 325.367 465.189 325.568V326.714C465.189 326.916 465.352 327.079 465.553 327.079Z" fill="#1E1E1E"/>
<path d="M459.303 327.079H461.699C461.9 327.079 462.063 326.916 462.063 326.714V325.568C462.063 325.367 461.9 325.204 461.699 325.204H459.303C459.102 325.204 458.939 325.367 458.939 325.568V326.714C458.939 326.916 459.102 327.079 459.303 327.079Z" fill="#1E1E1E"/>
<path d="M453.054 327.079H455.45C455.651 327.079 455.814 326.916 455.814 326.714V325.568C455.814 325.367 455.651 325.204 455.45 325.204H453.054C452.853 325.204 452.69 325.367 452.69 325.568V326.714C452.69 326.916 452.853 327.079 453.054 327.079Z" fill="#1E1E1E"/>
<path d="M446.804 327.079H449.2C449.401 327.079 449.564 326.916 449.564 326.714V325.568C449.564 325.367 449.401 325.204 449.2 325.204H446.804C446.603 325.204 446.44 325.367 446.44 325.568V326.714C446.44 326.916 446.603 327.079 446.804 327.079Z" fill="#1E1E1E"/>
<path d="M440.555 327.079H442.951C443.152 327.079 443.315 326.916 443.315 326.714V325.568C443.315 325.367 443.152 325.204 442.951 325.204H440.555C440.354 325.204 440.191 325.367 440.191 325.568V326.714C440.191 326.916 440.354 327.079 440.555 327.079Z" fill="#1E1E1E"/>
<path d="M434.305 327.079H436.701C436.902 327.079 437.065 326.916 437.065 326.714V325.568C437.065 325.367 436.902 325.204 436.701 325.204H434.305C434.104 325.204 433.941 325.367 433.941 325.568V326.714C433.941 326.916 434.104 327.079 434.305 327.079Z" fill="#1E1E1E"/>
<path d="M428.055 327.079H430.451C430.652 327.079 430.815 326.916 430.815 326.714V325.568C430.815 325.367 430.652 325.204 430.451 325.204H428.055C427.854 325.204 427.691 325.367 427.691 325.568V326.714C427.691 326.916 427.854 327.079 428.055 327.079Z" fill="#1E1E1E"/>
<path d="M421.806 327.079H424.202C424.403 327.079 424.566 326.916 424.566 326.714V325.568C424.566 325.367 424.403 325.204 424.202 325.204H421.806C421.605 325.204 421.442 325.367 421.442 325.568V326.714C421.442 326.916 421.605 327.079 421.806 327.079Z" fill="#1E1E1E"/>
<path d="M415.556 327.079H417.952C418.153 327.079 418.316 326.916 418.316 326.714V325.568C418.316 325.367 418.153 325.204 417.952 325.204H415.556C415.355 325.204 415.192 325.367 415.192 325.568V326.714C415.192 326.916 415.355 327.079 415.556 327.079Z" fill="#1E1E1E"/>
<path d="M409.307 327.079H411.703C411.904 327.079 412.067 326.916 412.067 326.714V325.568C412.067 325.367 411.904 325.204 411.703 325.204H409.307C409.106 325.204 408.943 325.367 408.943 325.568V326.714C408.943 326.916 409.106 327.079 409.307 327.079Z" fill="#1E1E1E"/>
<path d="M403.057 327.079H405.453C405.654 327.079 405.817 326.916 405.817 326.714V325.568C405.817 325.367 405.654 325.204 405.453 325.204H403.057C402.856 325.204 402.693 325.367 402.693 325.568V326.714C402.693 326.916 402.856 327.079 403.057 327.079Z" fill="#1E1E1E"/>
<path d="M396.808 327.079H399.204C399.405 327.079 399.568 326.916 399.568 326.714V325.568C399.568 325.367 399.405 325.204 399.204 325.204H396.808C396.607 325.204 396.444 325.367 396.444 325.568V326.714C396.444 326.916 396.607 327.079 396.808 327.079Z" fill="#1E1E1E"/>
<path d="M390.558 327.079H392.954C393.155 327.079 393.318 326.916 393.318 326.714V325.568C393.318 325.367 393.155 325.204 392.954 325.204H390.558C390.357 325.204 390.194 325.367 390.194 325.568V326.714C390.194 326.916 390.357 327.079 390.558 327.079Z" fill="#1E1E1E"/>
<path d="M384.309 327.079H386.705C386.906 327.079 387.069 326.916 387.069 326.714V325.568C387.069 325.367 386.906 325.204 386.705 325.204H384.309C384.108 325.204 383.945 325.367 383.945 325.568V326.714C383.945 326.916 384.108 327.079 384.309 327.079Z" fill="#1E1E1E"/>
<path d="M378.059 327.079H380.455C380.656 327.079 380.819 326.916 380.819 326.714V325.568C380.819 325.367 380.656 325.204 380.455 325.204H378.059C377.858 325.204 377.695 325.367 377.695 325.568V326.714C377.695 326.916 377.858 327.079 378.059 327.079Z" fill="#1E1E1E"/>
<path d="M371.809 327.079H374.205C374.406 327.079 374.569 326.916 374.569 326.714V325.568C374.569 325.367 374.406 325.204 374.205 325.204H371.809C371.608 325.204 371.445 325.367 371.445 325.568V326.714C371.445 326.916 371.608 327.079 371.809 327.079Z" fill="#1E1E1E"/>
<path d="M413.681 330.828H437.951C438.152 330.828 438.315 330.665 438.315 330.464V329.317C438.315 329.116 438.152 328.953 437.951 328.953H413.681C413.48 328.953 413.317 329.116 413.317 329.317V330.464C413.317 330.665 413.48 330.828 413.681 330.828Z" fill="#1E1E1E"/>
<path d="M387.968 267.633H385.846C385.203 267.633 384.682 268.154 384.682 268.797C384.682 269.44 385.203 269.962 385.846 269.962H387.968C388.611 269.962 389.132 269.44 389.132 268.797C389.132 268.154 388.611 267.633 387.968 267.633Z" fill="white"/>
<path d="M412.231 267.633H410.11C409.467 267.633 408.945 268.154 408.945 268.797C408.945 269.44 409.467 269.962 410.11 269.962H412.231C412.875 269.962 413.396 269.44 413.396 268.797C413.396 268.154 412.875 267.633 412.231 267.633Z" fill="white"/>
<path d="M419.106 267.633H416.985C416.342 267.633 415.82 268.154 415.82 268.797C415.82 269.44 416.342 269.962 416.985 269.962H419.106C419.75 269.962 420.271 269.44 420.271 268.797C420.271 268.154 419.75 267.633 419.106 267.633Z" fill="white"/>
<path d="M405.631 267.438H392.446C391.803 267.438 391.281 267.96 391.281 268.603C391.281 269.246 391.803 269.768 392.446 269.768H405.631C406.275 269.768 406.796 269.246 406.796 268.603C406.796 267.96 406.275 267.438 405.631 267.438Z" fill="white"/>
<path d="M437.983 267.438H424.797C424.154 267.438 423.633 267.96 423.633 268.603C423.633 269.246 424.154 269.768 424.797 269.768H437.983C438.626 269.768 439.148 269.246 439.148 268.603C439.148 267.96 438.626 267.438 437.983 267.438Z" fill="white"/>
<path d="M394.438 272.89H392.317C391.674 272.89 391.152 273.411 391.152 274.054C391.152 274.697 391.674 275.219 392.317 275.219H394.438C395.082 275.219 395.603 274.697 395.603 274.054C395.603 273.411 395.082 272.89 394.438 272.89Z" fill="white"/>
<path d="M418.702 272.89H416.581C415.937 272.89 415.416 273.411 415.416 274.054C415.416 274.697 415.937 275.219 416.581 275.219H418.702C419.345 275.219 419.867 274.697 419.867 274.054C419.867 273.411 419.345 272.89 418.702 272.89Z" fill="white"/>
<path d="M425.576 272.89H423.455C422.811 272.89 422.29 273.411 422.29 274.054C422.29 274.697 422.811 275.219 423.455 275.219H425.576C426.219 275.219 426.741 274.697 426.741 274.054C426.741 273.411 426.219 272.89 425.576 272.89Z" fill="white"/>
<path d="M412.102 272.696H398.917C398.273 272.696 397.752 273.217 397.752 273.86C397.752 274.503 398.273 275.025 398.917 275.025H412.102C412.745 275.025 413.267 274.503 413.267 273.86C413.267 273.217 412.745 272.696 412.102 272.696Z" fill="white"/>
<path d="M444.454 272.696H431.268C430.625 272.696 430.104 273.217 430.104 273.86C430.104 274.503 430.625 275.025 431.268 275.025H444.454C445.097 275.025 445.618 274.503 445.618 273.86C445.618 273.217 445.097 272.696 444.454 272.696Z" fill="white"/>
<path d="M400.908 278.147H398.787C398.143 278.147 397.622 278.668 397.622 279.311C397.622 279.955 398.143 280.476 398.787 280.476H400.908C401.551 280.476 402.073 279.955 402.073 279.311C402.073 278.668 401.551 278.147 400.908 278.147Z" fill="white"/>
<path d="M425.172 278.147H423.05C422.407 278.147 421.886 278.668 421.886 279.311C421.886 279.955 422.407 280.476 423.05 280.476H425.172C425.815 280.476 426.336 279.955 426.336 279.311C426.336 278.668 425.815 278.147 425.172 278.147Z" fill="white"/>
<path d="M432.047 278.147H429.925C429.282 278.147 428.761 278.668 428.761 279.311C428.761 279.955 429.282 280.476 429.925 280.476H432.047C432.69 280.476 433.211 279.955 433.211 279.311C433.211 278.668 432.69 278.147 432.047 278.147Z" fill="white"/>
<path d="M418.573 277.953H405.387C404.744 277.953 404.223 278.474 404.223 279.117C404.223 279.76 404.744 280.282 405.387 280.282H418.573C419.216 280.282 419.737 279.76 419.737 279.117C419.737 278.474 419.216 277.953 418.573 277.953Z" fill="white"/>
<path d="M450.923 277.953H437.738C437.095 277.953 436.573 278.474 436.573 279.117C436.573 279.76 437.095 280.282 437.738 280.282H450.923C451.567 280.282 452.088 279.76 452.088 279.117C452.088 278.474 451.567 277.953 450.923 277.953Z" fill="white"/>
<path d="M407.379 283.404H405.257C404.614 283.404 404.093 283.925 404.093 284.568C404.093 285.212 404.614 285.733 405.257 285.733H407.379C408.022 285.733 408.544 285.212 408.544 284.568C408.544 283.925 408.022 283.404 407.379 283.404Z" fill="white"/>
<path d="M431.643 283.404H429.521C428.878 283.404 428.356 283.925 428.356 284.568C428.356 285.212 428.878 285.733 429.521 285.733H431.643C432.286 285.733 432.807 285.212 432.807 284.568C432.807 283.925 432.286 283.404 431.643 283.404Z" fill="white"/>
<path d="M438.517 283.404H436.395C435.752 283.404 435.23 283.925 435.23 284.568C435.23 285.212 435.752 285.733 436.395 285.733H438.517C439.16 285.733 439.681 285.212 439.681 284.568C439.681 283.925 439.16 283.404 438.517 283.404Z" fill="white"/>
<path d="M425.043 283.21H411.857C411.214 283.21 410.692 283.731 410.692 284.374C410.692 285.018 411.214 285.539 411.857 285.539H425.043C425.686 285.539 426.207 285.018 426.207 284.374C426.207 283.731 425.686 283.21 425.043 283.21Z" fill="white"/>
<path d="M412.231 304.308H410.11C409.467 304.308 408.945 304.83 408.945 305.473C408.945 306.116 409.467 306.638 410.11 306.638H412.231C412.875 306.638 413.396 306.116 413.396 305.473C413.396 304.83 412.875 304.308 412.231 304.308Z" fill="white"/>
<path d="M419.106 304.308H416.985C416.342 304.308 415.82 304.83 415.82 305.473C415.82 306.116 416.342 306.638 416.985 306.638H419.106C419.75 306.638 420.271 306.116 420.271 305.473C420.271 304.83 419.75 304.308 419.106 304.308Z" fill="white"/>
<path d="M437.983 304.502H424.797C424.154 304.502 423.633 305.024 423.633 305.667C423.633 306.31 424.154 306.832 424.797 306.832H437.983C438.626 306.832 439.148 306.31 439.148 305.667C439.148 305.024 438.626 304.502 437.983 304.502Z" fill="white"/>
<path d="M387.968 304.308H385.846C385.203 304.308 384.682 304.83 384.682 305.473C384.682 306.116 385.203 306.638 385.846 306.638H387.968C388.611 306.638 389.132 306.116 389.132 305.473C389.132 304.83 388.611 304.308 387.968 304.308Z" fill="white"/>
<path d="M405.631 304.502H392.446C391.803 304.502 391.281 305.024 391.281 305.667C391.281 306.31 391.803 306.832 392.446 306.832H405.631C406.275 306.832 406.796 306.31 406.796 305.667C406.796 305.024 406.275 304.502 405.631 304.502Z" fill="white"/>
<path d="M394.438 299.051H392.317C391.674 299.051 391.152 299.573 391.152 300.216C391.152 300.859 391.674 301.381 392.317 301.381H394.438C395.082 301.381 395.603 300.859 395.603 300.216C395.603 299.573 395.082 299.051 394.438 299.051Z" fill="white"/>
<path d="M418.702 299.051H416.581C415.937 299.051 415.416 299.573 415.416 300.216C415.416 300.859 415.937 301.381 416.581 301.381H418.702C419.345 301.381 419.867 300.859 419.867 300.216C419.867 299.573 419.345 299.051 418.702 299.051Z" fill="white"/>
<path d="M425.576 299.051H423.455C422.811 299.051 422.29 299.573 422.29 300.216C422.29 300.859 422.811 301.381 423.455 301.381H425.576C426.219 301.381 426.741 300.859 426.741 300.216C426.741 299.573 426.219 299.051 425.576 299.051Z" fill="white"/>
<path d="M412.102 299.245H398.917C398.273 299.245 397.752 299.767 397.752 300.41C397.752 301.053 398.273 301.575 398.917 301.575H412.102C412.745 301.575 413.267 301.053 413.267 300.41C413.267 299.767 412.745 299.245 412.102 299.245Z" fill="white"/>
<path d="M400.908 293.794H398.787C398.143 293.794 397.622 294.316 397.622 294.959C397.622 295.602 398.143 296.123 398.787 296.123H400.908C401.551 296.123 402.073 295.602 402.073 294.959C402.073 294.316 401.551 293.794 400.908 293.794Z" fill="white"/>
<path d="M425.172 293.794H423.05C422.407 293.794 421.886 294.316 421.886 294.959C421.886 295.602 422.407 296.123 423.05 296.123H425.172C425.815 296.123 426.336 295.602 426.336 294.959C426.336 294.316 425.815 293.794 425.172 293.794Z" fill="white"/>
<path d="M432.047 293.794H429.925C429.282 293.794 428.761 294.316 428.761 294.959C428.761 295.602 429.282 296.123 429.925 296.123H432.047C432.69 296.123 433.211 295.602 433.211 294.959C433.211 294.316 432.69 293.794 432.047 293.794Z" fill="white"/>
<path d="M418.573 293.988H405.387C404.744 293.988 404.223 294.51 404.223 295.153C404.223 295.796 404.744 296.318 405.387 296.318H418.573C419.216 296.318 419.737 295.796 419.737 295.153C419.737 294.51 419.216 293.988 418.573 293.988Z" fill="white"/>
<path d="M407.379 288.537H405.257C404.614 288.537 404.093 289.059 404.093 289.702C404.093 290.345 404.614 290.866 405.257 290.866H407.379C408.022 290.866 408.544 290.345 408.544 289.702C408.544 289.059 408.022 288.537 407.379 288.537Z" fill="white"/>
<path d="M431.643 288.537H429.521C428.878 288.537 428.356 289.059 428.356 289.702C428.356 290.345 428.878 290.866 429.521 290.866H431.643C432.286 290.866 432.807 290.345 432.807 289.702C432.807 289.059 432.286 288.537 431.643 288.537Z" fill="white"/>
<path d="M438.517 288.537H436.395C435.752 288.537 435.23 289.059 435.23 289.702C435.23 290.345 435.752 290.866 436.395 290.866H438.517C439.16 290.866 439.681 290.345 439.681 289.702C439.681 289.059 439.16 288.537 438.517 288.537Z" fill="white"/>
<path d="M425.043 288.731H411.857C411.214 288.731 410.692 289.253 410.692 289.896C410.692 290.539 411.214 291.06 411.857 291.06H425.043C425.686 291.06 426.207 290.539 426.207 289.896C426.207 289.253 425.686 288.731 425.043 288.731Z" fill="white"/>
<path d="M376.689 365.919L366.729 350.177L397.99 325.257L410.893 310.962C412.569 309.105 414.704 307.72 417.083 306.946C419.462 306.172 422.003 306.036 424.451 306.552C426.899 307.068 429.169 308.217 431.034 309.884C432.899 311.552 434.293 313.68 435.078 316.056C436.241 319.576 435.991 323.411 434.381 326.75C432.77 330.089 429.925 332.672 426.447 333.954L406.043 341.471L376.689 365.919Z" fill="white"/>
<path d="M143.009 251.775V328.289H196.612V251.775C196.613 251.224 196.437 250.688 196.111 250.245C195.785 249.802 195.325 249.475 194.799 249.313C194.551 249.231 194.292 249.19 194.031 249.193H145.598C145.258 249.193 144.922 249.259 144.608 249.388C144.294 249.518 144.009 249.708 143.768 249.947C143.528 250.187 143.337 250.472 143.207 250.785C143.076 251.099 143.009 251.435 143.009 251.775ZM163.928 278.065C163.942 276.557 164.551 275.115 165.622 274.053C166.694 272.991 168.141 272.396 169.65 272.396C171.158 272.396 172.606 272.991 173.677 274.053C174.749 275.115 175.358 276.557 175.372 278.065V286.943C175.364 288.455 174.758 289.903 173.686 290.97C172.614 292.037 171.162 292.636 169.65 292.636C168.137 292.636 166.686 292.037 165.614 290.97C164.542 289.903 163.936 288.455 163.928 286.943V278.065Z" fill="#0F0F0F"/>
<path d="M142.845 325.842V333.22C142.846 333.602 142.998 333.968 143.267 334.239C143.537 334.51 143.902 334.664 144.285 334.667H195.336C195.719 334.665 196.085 334.512 196.355 334.241C196.625 333.969 196.776 333.602 196.776 333.22V325.842H142.845Z" fill="#1E1E1E"/>
<path d="M58.6836 136.496V276.2C58.685 277.98 59.3929 279.687 60.6517 280.946C61.9106 282.205 63.6176 282.913 65.398 282.914H272.424C274.205 282.913 275.912 282.205 277.171 280.946C278.429 279.687 279.137 277.98 279.139 276.2V136.496C279.134 134.718 278.425 133.013 277.167 131.756C275.908 130.499 274.203 129.792 272.424 129.79H65.398C63.6192 129.792 61.9138 130.499 60.6553 131.756C59.3968 133.013 58.6878 134.718 58.6836 136.496Z" fill="#1E1E1E"/>
<path d="M63.54 138.235V274.477C63.5417 275.428 63.9203 276.34 64.5929 277.012C65.2655 277.685 66.1773 278.063 67.1285 278.065H270.701C271.652 278.063 272.564 277.685 273.236 277.012C273.909 276.34 274.288 275.428 274.289 274.477V138.235C274.289 137.282 273.911 136.369 273.238 135.695C272.566 135.021 271.653 134.641 270.701 134.639H67.1285C66.1761 134.641 65.2635 135.021 64.5907 135.695C63.918 136.369 63.5401 137.282 63.54 138.235Z" fill="white"/>
<path d="M101.319 334.167C101.527 334.427 101.79 334.637 102.09 334.78C102.39 334.924 102.718 334.997 103.05 334.996H224.163C224.494 334.995 224.821 334.921 225.12 334.778C225.419 334.636 225.682 334.428 225.891 334.171C226.099 333.914 226.248 333.613 226.326 333.291C226.404 332.969 226.409 332.634 226.341 332.31L224.461 323.38C224.383 323.015 224.215 322.677 223.973 322.394C223.731 322.111 223.421 321.893 223.073 321.761C222.821 321.662 222.553 321.611 222.283 321.612H104.923C104.652 321.611 104.384 321.662 104.132 321.761C103.784 321.893 103.475 322.111 103.232 322.394C102.99 322.677 102.822 323.015 102.744 323.38L100.864 332.31C100.797 332.634 100.804 332.969 100.882 333.29C100.961 333.611 101.11 333.911 101.319 334.167Z" fill="#0F0F0F"/>
<path d="M264.095 153.407H73.6129C73.4149 153.402 73.2265 153.32 73.0881 153.179C72.9496 153.037 72.8721 152.847 72.8721 152.649C72.8721 152.451 72.9496 152.261 73.0881 152.119C73.2265 151.978 73.4149 151.896 73.6129 151.892H264.095C264.293 151.896 264.481 151.978 264.619 152.119C264.758 152.261 264.836 152.451 264.836 152.649C264.836 152.847 264.758 153.037 264.619 153.179C264.481 153.32 264.293 153.402 264.095 153.407Z" fill="#1E1E1E"/>
<path d="M86.5789 148.024C89.0306 148.024 91.0182 145.992 91.0182 143.486C91.0182 140.979 89.0306 138.948 86.5789 138.948C84.1272 138.948 82.1396 140.979 82.1396 143.486C82.1396 145.992 84.1272 148.024 86.5789 148.024Z" fill="#1E1E1E"/>
<path d="M101.915 148.024C104.367 148.024 106.354 145.992 106.354 143.486C106.354 140.979 104.367 138.948 101.915 138.948C99.4631 138.948 97.4756 140.979 97.4756 143.486C97.4756 145.992 99.4631 148.024 101.915 148.024Z" fill="#1E1E1E"/>
<path d="M117.251 148.024C119.703 148.024 121.69 145.992 121.69 143.486C121.69 140.979 119.703 138.948 117.251 138.948C114.799 138.948 112.812 140.979 112.812 143.486C112.812 145.992 114.799 148.024 117.251 148.024Z" fill="#1E1E1E"/>
<path d="M254.86 140.07H243.968C243.752 140.075 243.547 140.164 243.397 140.318C243.246 140.472 243.162 140.679 243.162 140.894C243.162 141.11 243.246 141.316 243.397 141.47C243.547 141.625 243.752 141.714 243.968 141.719H254.86C255.076 141.716 255.283 141.627 255.435 141.473C255.587 141.319 255.673 141.111 255.673 140.894C255.673 140.678 255.587 140.47 255.435 140.315C255.283 140.161 255.076 140.073 254.86 140.07Z" fill="#1E1E1E"/>
<path d="M254.86 143.166H243.968C243.752 143.171 243.547 143.26 243.396 143.414C243.246 143.568 243.161 143.775 243.161 143.99C243.161 144.206 243.246 144.413 243.396 144.567C243.547 144.721 243.752 144.81 243.968 144.815H254.86C255.077 144.812 255.284 144.724 255.436 144.57C255.589 144.416 255.674 144.207 255.674 143.99C255.674 143.773 255.589 143.565 255.436 143.411C255.284 143.257 255.077 143.169 254.86 143.166Z" fill="#1E1E1E"/>
<path d="M254.86 146.262H243.968C243.752 146.267 243.547 146.356 243.397 146.51C243.246 146.664 243.162 146.871 243.162 147.086C243.162 147.302 243.246 147.509 243.397 147.663C243.547 147.817 243.752 147.906 243.968 147.911H254.86C255.076 147.908 255.283 147.819 255.435 147.665C255.587 147.511 255.673 147.303 255.673 147.086C255.673 146.87 255.587 146.662 255.435 146.507C255.283 146.353 255.076 146.265 254.86 146.262Z" fill="#1E1E1E"/>
<path d="M517.451 329.08C517.78 330.037 518.403 330.865 519.232 331.445C520.061 332.026 521.052 332.329 522.064 332.311L541.828 331.802C542.847 331.782 543.833 331.433 544.637 330.807C545.441 330.181 546.021 329.311 546.29 328.328L549.087 298.421C550.079 298.871 551.159 299.093 552.249 299.071C553.195 299.047 554.127 298.837 554.992 298.453C555.857 298.069 556.638 297.518 557.291 296.832C557.943 296.147 558.454 295.339 558.794 294.456C559.134 293.572 559.297 292.631 559.273 291.684C559.249 290.738 559.04 289.806 558.655 288.941C558.271 288.076 557.721 287.295 557.035 286.642C556.349 285.99 555.541 285.479 554.658 285.139C553.775 284.799 552.833 284.636 551.887 284.66C551.452 284.658 551.017 284.704 550.592 284.795C550.129 284.294 549.566 283.895 548.94 283.625C548.313 283.355 547.637 283.219 546.955 283.226L516.554 284.011C516.302 284.02 516.051 284.051 515.804 284.104C515.137 284.228 514.505 284.494 513.949 284.883C513.394 285.272 512.928 285.776 512.584 286.36C512.239 286.944 512.024 287.595 511.952 288.27C511.881 288.944 511.954 289.626 512.168 290.269L517.451 329.08ZM549.66 296.39L551.651 289.264C551.877 288.441 551.882 287.572 551.666 286.746C551.762 286.746 551.848 286.7 551.944 286.7C553.309 286.672 554.629 287.186 555.615 288.129C556.601 289.073 557.173 290.369 557.205 291.734C557.237 293.098 556.726 294.42 555.785 295.408C554.845 296.397 553.55 296.972 552.186 297.008C551.303 297.036 550.43 296.822 549.66 296.39Z" fill="#0F0F0F"/>
<path d="M515.804 284.104C516.451 287.807 523.733 290.411 532.49 289.958C540.541 289.587 547.125 286.76 548.331 283.409C547.885 283.277 547.421 283.215 546.955 283.226L516.554 284.011C516.301 284.02 516.051 284.051 515.804 284.104Z" fill="#1E1E1E"/>
<path d="M534.094 312.646C534.134 312.635 534.172 312.619 534.206 312.596L538.498 309.787C538.55 309.753 538.593 309.707 538.622 309.652C538.652 309.598 538.668 309.537 538.668 309.475C538.668 309.413 538.652 309.352 538.623 309.297C538.593 309.243 538.551 309.197 538.499 309.163L534.038 306.241C533.997 306.214 533.951 306.195 533.902 306.186C533.854 306.176 533.805 306.177 533.757 306.187C533.709 306.196 533.663 306.216 533.622 306.243C533.582 306.271 533.547 306.306 533.52 306.347C533.493 306.388 533.475 306.434 533.465 306.483C533.456 306.531 533.457 306.58 533.467 306.629C533.477 306.677 533.497 306.722 533.524 306.763C533.552 306.803 533.588 306.838 533.629 306.864L537.613 309.474L533.798 311.972C533.724 312.02 533.67 312.093 533.645 312.178C533.62 312.262 533.625 312.353 533.661 312.434C533.696 312.515 533.759 312.58 533.838 312.619C533.918 312.658 534.008 312.667 534.094 312.646Z" fill="#F5F7FA"/>
<path d="M527.315 312.958C527.387 312.94 527.452 312.901 527.502 312.845C527.551 312.79 527.583 312.721 527.593 312.647C527.604 312.574 527.591 312.499 527.559 312.432C527.526 312.366 527.474 312.31 527.409 312.273L523.453 310.005L527.277 307.165C527.316 307.135 527.349 307.099 527.375 307.057C527.4 307.015 527.416 306.968 527.424 306.92C527.431 306.871 527.428 306.822 527.416 306.775C527.404 306.727 527.383 306.682 527.354 306.643C527.325 306.604 527.288 306.571 527.246 306.546C527.204 306.52 527.158 306.504 527.109 306.497C527.061 306.49 527.011 306.492 526.964 306.504C526.916 306.516 526.872 306.537 526.832 306.566L522.551 309.746C522.501 309.783 522.462 309.832 522.435 309.888C522.409 309.944 522.397 310.006 522.401 310.068C522.405 310.129 522.424 310.189 522.456 310.242C522.489 310.295 522.534 310.338 522.588 310.369L527.038 312.92C527.122 312.969 527.222 312.982 527.315 312.958Z" fill="#F5F7FA"/>
<path d="M533.667 315.108C533.703 315.099 533.737 315.084 533.769 315.064C533.811 315.039 533.847 315.006 533.876 314.966C533.905 314.926 533.926 314.882 533.938 314.834C533.949 314.786 533.952 314.737 533.944 314.689C533.937 314.64 533.92 314.594 533.894 314.552L527.81 304.549C527.758 304.464 527.675 304.404 527.579 304.381C527.483 304.357 527.382 304.373 527.297 304.425C527.213 304.476 527.152 304.559 527.129 304.655C527.105 304.751 527.121 304.852 527.172 304.937L533.257 314.94C533.298 315.008 533.36 315.061 533.434 315.091C533.508 315.121 533.59 315.127 533.667 315.108Z" fill="#F5F7FA"/>
<path d="M191.612 194.588H158.644C157.299 194.588 156.209 195.678 156.209 197.023V200.244C156.209 201.589 157.299 202.679 158.644 202.679H191.612C192.957 202.679 194.048 201.589 194.048 200.244V197.023C194.048 195.678 192.957 194.588 191.612 194.588Z" fill="#F5BF04"/>
<path d="M210.829 210.771H139.427C138.082 210.771 136.992 211.861 136.992 213.206V216.427C136.992 217.772 138.082 218.862 139.427 218.862H210.829C212.174 218.862 213.265 217.772 213.265 216.427V213.206C213.265 211.861 212.174 210.771 210.829 210.771Z" fill="#717171"/>
<path d="M210.829 226.953H139.427C138.082 226.953 136.992 228.043 136.992 229.388V232.609C136.992 233.954 138.082 235.044 139.427 235.044H210.829C212.174 235.044 213.265 233.954 213.265 232.609V229.388C213.265 228.043 212.174 226.953 210.829 226.953Z" fill="#717171"/>
<path d="M216.883 281.142L217.045 281.653L217.053 281.67L221.921 296.47L227.521 313.525L238.057 345.576L238.159 350.555V350.572L238.942 390.623L236.772 396.052L239.215 404.954C239.215 404.954 238.091 391.498 232.066 399.226C228.653 403.617 224.662 408.111 221.385 412.324C226.159 414.256 231.01 416.003 235.938 417.566C237.002 417.907 238.074 418.23 239.147 418.553C239.376 418.621 239.606 418.69 239.836 418.758C256.17 423.588 273.057 426.303 290.082 426.834C290.967 426.86 291.836 426.877 292.678 426.894C292.976 426.902 293.265 426.911 293.555 426.911C294.508 426.919 295.453 426.928 296.406 426.928C298.329 426.928 300.244 426.899 302.15 426.843C316.26 426.445 330.288 424.548 343.997 421.183C343.903 415.524 343.648 408.911 343.282 401.847C343.112 398.383 339.291 394.63 339.061 391.005C338.899 388.281 342.329 385.719 342.15 382.954C340.993 365.924 339.546 372.461 338.474 360.402C338.363 359.219 338.261 358.087 338.167 357.006C337.478 349.261 337.001 344.419 337.001 344.419L341.58 315.559L348.771 270.249L348.218 269.338L347.597 269.032L309.665 250.258L307.606 244.981C307.006 243.461 305.964 242.155 304.616 241.231C303.268 240.308 301.674 239.808 300.04 239.798L275.053 239.696C273.756 239.69 272.477 239.993 271.321 240.581C270.165 241.169 269.165 242.024 268.406 243.075L261.64 252.445L216.883 281.142Z" fill="#1E1E1E"/>
<path d="M243.819 338.444L238.159 350.555L234.295 358.827L227.649 393.627L224.321 397.159L221.47 384.656L191.63 391.281C190.651 385.843 191.368 391.465 190.764 385.499C190.934 385.329 191.113 385.159 191.291 384.989C191.768 384.546 192.168 384.129 192.159 383.729C191.819 363.151 192.84 328.13 201.368 306.913C202.703 303.448 204.464 300.164 206.61 297.134C206.781 296.904 206.942 296.674 207.104 296.445C211.036 290.938 213.521 285.517 217.044 281.662V281.653C217.066 281.636 217.086 281.616 217.104 281.594C217.117 281.587 217.128 281.579 217.138 281.568L241.342 268.734L242.38 297.908L243.121 318.879L243.819 338.444Z" fill="#1E1E1E"/>
<path d="M331.094 341.884L338.163 357.01L340.631 362.278L347.276 397.074L350.592 400.598L353.45 388.098L354.793 387.822L379.008 382.807L386.066 405.223C387.657 402.572 388.283 399.454 387.84 396.394C387.397 393.335 385.911 390.523 383.633 388.433C383.151 387.996 382.749 387.572 382.761 387.17C383.162 362.966 381.682 318.77 368.312 300.58C364.066 294.808 361.518 289.058 357.811 285.041C357.799 285.03 357.799 285.018 357.788 285.018L348.767 270.248L348.217 269.341L347.597 269.031L331.094 341.884Z" fill="#1E1E1E"/>
<path d="M288.268 232.585C306.627 232.585 321.51 217.702 321.51 199.343C321.51 180.983 306.627 166.1 288.268 166.1C269.908 166.1 255.025 180.983 255.025 199.343C255.025 217.702 269.908 232.585 288.268 232.585Z" fill="white"/>
<path d="M333.198 176.123C332.941 175.848 332.63 175.627 332.285 175.475C331.941 175.322 331.569 175.241 331.192 175.235L331.691 173.848C331.854 173.41 331.899 172.938 331.819 172.478C331.739 172.018 331.539 171.588 331.238 171.231C330.938 170.875 330.548 170.604 330.108 170.448C329.669 170.291 329.195 170.255 328.737 170.341L326.917 170.692L327.088 169.476C327.154 169.023 327.101 168.561 326.934 168.135C326.767 167.708 326.492 167.333 326.136 167.046C325.78 166.758 325.355 166.568 324.903 166.495C324.451 166.421 323.988 166.466 323.56 166.626C323.169 166.779 322.75 166.844 322.331 166.814C321.913 166.784 321.507 166.661 321.142 166.454C320.776 166.253 320.458 165.975 320.211 165.639C319.964 165.303 319.793 164.916 319.71 164.507L319.076 161.448L319.009 161.284C315.92 156.137 309.982 152.391 302.715 151.019C296.247 149.788 289.615 150.414 283.221 151.004C280.685 151.242 277.82 151.511 275.432 152.973C273.403 154.227 271.687 156.733 272.038 159.262C265.734 157.33 258.975 161.187 255.625 166.051C251.656 171.841 251.007 179.092 250.903 184.762C250.619 198.176 253.387 209.15 259.109 217.386C259.527 217.983 259.631 219.229 260.459 219.647L260.288 219.371C261.213 219.833 262.153 220.58 261.802 221.378C260.795 223.676 267.487 228.756 272.202 230.435C280.804 233.501 292.241 233.24 300.283 232.136L300.567 230.233C303.469 229.838 305.513 229.084 306.087 227.906C307.102 227.04 307.967 226.264 308.721 225.548L308.728 225.541C308.743 225.526 308.773 225.503 308.788 225.488C312.421 222.004 313.264 220.02 313.645 216.999C314.01 214.037 313.361 211.03 312.697 208.322C326.678 210.486 307.191 193.431 320.217 190.134C320.367 190.088 320.519 190.05 320.672 190.022C321.053 189.932 321.433 189.843 321.799 189.738C323.561 189.26 325.248 188.539 326.812 187.597C330.453 185.381 331.654 182.442 333.534 179.13C333.805 178.658 333.919 178.112 333.859 177.571C333.798 177.031 333.567 176.523 333.198 176.123Z" fill="#0F0F0F"/>
<path d="M405.84 344.251C405.833 345.556 405.818 347.384 405.758 349.645C405.751 349.958 405.743 350.279 405.736 350.607C405.639 354.762 405.542 358.246 405.385 362.118C405.378 362.387 405.37 362.648 405.355 362.917C405.146 368.318 404.818 374.607 404.251 384.567C403.199 402.964 401.364 387.096 399.521 393.549C399.432 393.87 399.335 394.25 399.245 394.698C398.966 396.322 398.495 397.907 397.843 399.42C396.865 400.002 395.858 400.562 394.866 401.121C392.038 402.696 389.166 404.21 386.272 405.65C384.645 406.456 383.011 407.246 381.37 408.007C381.109 408.127 380.855 408.246 380.602 408.358C372.197 412.246 363.535 415.551 354.677 418.251C352.946 418.773 351.223 419.28 349.477 419.75C347.657 420.257 345.836 420.735 343.993 421.183C330.285 424.548 316.258 426.446 302.148 426.845C300.246 426.905 298.328 426.927 296.403 426.927C295.449 426.927 294.509 426.92 293.554 426.912C293.263 426.912 292.972 426.905 292.681 426.897C291.838 426.875 290.965 426.86 290.084 426.837C273.059 426.306 256.172 423.591 239.839 418.758L239.145 418.556C238.071 418.228 237.004 417.907 235.937 417.564C231.013 416.005 226.161 414.259 221.382 412.327C217.733 410.857 214.128 409.281 210.564 407.597C210.531 407.588 210.501 407.573 210.474 407.552C209.728 407.209 208.975 406.851 208.229 406.485C208.132 406.433 208.027 406.381 207.923 406.329C205.14 404.971 202.387 403.549 199.664 402.061C197.374 396.802 194.151 395.795 192.152 391.169C191.57 389.795 191.149 388.358 190.898 386.887C190.898 386.872 190.891 386.857 190.891 386.835C191.1 389.61 190.003 381.911 190.883 386.805C190.876 386.715 190.869 386.618 190.861 386.506C190.839 386.238 190.809 385.91 190.764 385.499C188.205 360.514 188.369 331.941 187.258 308.396C187.183 306.874 187.106 305.417 187.026 304.024C187.004 303.562 186.974 303.107 186.944 302.659C186.997 302.525 187.056 302.383 187.123 302.249C187.138 302.21 187.155 302.173 187.176 302.137C187.198 302.09 187.223 302.046 187.25 302.002C187.265 301.98 187.288 301.95 187.302 301.928C187.313 301.902 187.326 301.877 187.34 301.853C187.407 301.749 187.481 301.637 187.564 301.532C187.601 301.488 187.631 301.45 187.668 301.413C187.694 301.375 187.724 301.34 187.758 301.309C187.78 301.273 187.808 301.24 187.84 301.212C187.869 301.182 187.899 301.144 187.937 301.107C187.953 301.084 187.973 301.063 187.996 301.048C188.055 300.98 188.12 300.917 188.19 300.861C188.456 300.616 188.741 300.392 189.041 300.19C189.145 300.122 189.257 300.055 189.362 299.981C190.113 299.531 190.905 299.151 191.726 298.847C192.01 298.742 192.293 298.645 192.599 298.541C192.711 298.511 192.816 298.474 192.928 298.436C193.092 298.384 193.256 298.332 193.427 298.295C194.278 298.041 195.196 297.825 196.188 297.623C196.307 297.601 196.434 297.578 196.561 297.549C196.74 297.511 196.926 297.481 197.113 297.452C197.367 297.407 197.628 297.362 197.889 297.317C200.104 296.967 202.619 296.706 205.394 296.534C205.655 296.519 205.916 296.504 206.177 296.489C206.483 296.474 206.789 296.459 207.102 296.444C207.363 296.43 207.632 296.422 207.901 296.415C208.162 296.4 208.43 296.392 208.706 296.385C209.46 296.362 210.236 296.34 211.027 296.325C213.28 296.28 215.652 296.295 218.144 296.347C219.3 296.377 220.479 296.407 221.687 296.459C221.77 296.459 221.844 296.467 221.919 296.467C222.971 296.504 224.03 296.549 225.119 296.609C225.88 296.646 226.649 296.683 227.417 296.728C228.141 296.773 228.872 296.817 229.61 296.87C230.185 296.9 230.759 296.944 231.341 296.982C231.834 297.019 232.326 297.056 232.818 297.086L233.49 297.131C233.855 297.161 234.221 297.183 234.594 297.22C235.415 297.287 236.235 297.355 237.071 297.422C237.899 297.496 238.742 297.571 239.585 297.646C240.428 297.72 241.278 297.802 242.129 297.884C242.218 297.892 242.301 297.899 242.383 297.907C243.159 297.989 243.934 298.063 244.718 298.145C244.897 298.16 245.083 298.175 245.262 298.198C246.009 298.273 246.771 298.361 247.524 298.441C247.756 298.466 247.986 298.49 248.218 298.515C248.808 298.579 249.39 298.635 249.985 298.705C250.768 298.794 251.566 298.877 252.342 298.981C252.947 299.048 253.551 299.115 254.155 299.19C255.103 299.302 256.065 299.421 257.027 299.548C257.393 299.593 257.758 299.638 258.124 299.69C260.869 300.033 263.645 300.413 266.465 300.809C270.74 301.413 275.082 302.07 279.453 302.778C283.833 303.487 288.237 304.236 292.666 305.024C293.785 305.225 294.904 305.427 296.03 305.636C296.538 305.733 297.045 305.83 297.552 305.927C298.418 306.083 299.283 306.247 300.148 306.412C301.014 306.576 301.879 306.74 302.745 306.911C303.774 307.113 304.811 307.314 305.841 307.516C312.622 308.859 319.366 310.291 325.947 311.79C327.028 312.037 328.11 312.29 329.184 312.537C331.333 313.036 333.462 313.544 335.571 314.058C336.152 314.193 336.727 314.334 337.301 314.476C338.734 314.834 340.166 315.192 341.576 315.558L341.822 315.625C342.859 315.879 343.874 316.14 344.889 316.408C347.283 317.035 349.638 317.669 351.954 318.311C353.49 318.736 355.01 319.166 356.512 319.602C358.758 320.251 360.958 320.907 363.099 321.571C363.629 321.735 364.159 321.899 364.681 322.056C366.248 322.541 367.792 323.033 369.292 323.526C370.485 323.914 371.649 324.309 372.798 324.704C373.947 325.1 375.073 325.495 376.178 325.891C376.886 326.144 377.588 326.413 378.289 326.667C379.296 327.04 380.288 327.413 381.258 327.786C381.557 327.898 381.847 328.017 382.138 328.129C382.325 328.211 382.504 328.278 382.683 328.353C383.034 328.494 383.392 328.629 383.735 328.77C384.086 328.905 384.429 329.046 384.772 329.196C385.108 329.33 385.451 329.472 385.779 329.613C386.115 329.748 386.443 329.889 386.771 330.039C387.047 330.151 387.316 330.27 387.577 330.389C388.107 330.621 388.636 330.852 389.151 331.091C389.405 331.21 389.659 331.322 389.912 331.441L390.494 331.71C390.576 331.755 390.658 331.792 390.74 331.829C390.927 331.919 391.121 332.016 391.307 332.105C391.74 332.307 392.165 332.523 392.583 332.724C393.143 333.008 393.687 333.291 394.209 333.567C394.739 333.851 395.254 334.134 395.746 334.41C395.828 334.455 395.903 334.5 395.985 334.545C396.097 334.604 396.209 334.672 396.321 334.731C396.701 334.948 397.067 335.171 397.432 335.388C398.148 335.828 398.827 336.261 399.461 336.693C399.603 336.79 399.738 336.887 399.879 336.977C400.349 337.312 400.797 337.641 401.215 337.976C401.215 337.984 401.215 337.984 401.222 337.984C401.364 338.088 401.498 338.2 401.632 338.305C401.744 338.409 401.864 338.499 401.976 338.603C402.364 338.939 402.722 339.26 403.05 339.588C403.16 339.689 403.265 339.796 403.363 339.909C403.407 339.945 403.447 339.985 403.483 340.028C403.632 340.177 403.766 340.326 403.893 340.476C403.913 340.496 403.93 340.519 403.945 340.543C404.124 340.752 404.288 340.961 404.445 341.17C404.52 341.274 404.602 341.378 404.669 341.483C404.758 341.61 404.848 341.744 404.923 341.871C404.99 341.975 405.049 342.087 405.109 342.192C405.267 342.461 405.402 342.743 405.512 343.035C405.596 343.233 405.663 343.437 405.713 343.646C405.77 343.845 405.812 344.047 405.84 344.251Z" fill="#0F0F0F"/>
<path opacity="0.2" d="M405.841 344.251C405.833 345.556 405.819 347.384 405.759 349.645C405.751 349.958 405.736 350.279 405.729 350.607C405.654 353.778 405.542 357.695 405.386 362.119C405.378 362.387 405.371 362.648 405.356 362.917C405.147 368.318 404.819 374.607 404.252 384.567C403.2 402.964 401.365 387.096 399.522 393.549C394.404 390.401 388.794 387.103 382.796 383.716C381.714 383.105 380.622 382.49 379.521 381.874C367.524 375.182 354.125 368.169 340.137 361.223C339.585 360.947 339.025 360.671 338.473 360.403C306.431 344.564 271.457 329.158 243.122 318.878C237.653 316.894 232.431 315.103 227.522 313.529C217.182 310.224 208.244 307.911 201.366 306.911C194.204 305.867 189.258 306.24 187.258 308.396C187.184 306.874 187.107 305.417 187.027 304.024C186.997 303.562 186.967 303.107 186.938 302.659C186.984 302.536 187.043 302.419 187.101 302.301C187.11 302.284 187.115 302.266 187.124 302.249C187.138 302.21 187.156 302.173 187.176 302.137C187.198 302.091 187.223 302.046 187.251 302.003C187.275 301.95 187.305 301.9 187.34 301.853C187.408 301.749 187.482 301.637 187.564 301.533C187.625 301.454 187.689 301.38 187.758 301.309C187.781 301.273 187.809 301.24 187.84 301.212C187.87 301.182 187.9 301.145 187.937 301.107C187.953 301.084 187.973 301.064 187.997 301.048C188.056 300.98 188.121 300.917 188.191 300.861C188.457 300.616 188.741 300.392 189.041 300.19C189.146 300.123 189.258 300.055 189.362 299.981C190.114 299.531 190.906 299.151 191.727 298.847C192.011 298.742 192.294 298.645 192.6 298.541C192.712 298.511 192.816 298.474 192.928 298.436C193.092 298.384 193.256 298.332 193.428 298.295C194.279 298.041 195.196 297.825 196.188 297.623C196.487 297.564 196.8 297.504 197.114 297.452C197.367 297.407 197.628 297.362 197.889 297.317C200.105 296.967 202.619 296.706 205.395 296.534C205.656 296.519 205.917 296.504 206.178 296.489C206.484 296.474 206.79 296.459 207.103 296.445C207.364 296.43 207.633 296.422 207.901 296.415C208.162 296.4 208.431 296.392 208.707 296.385C209.46 296.362 210.236 296.34 211.027 296.325C213.28 296.288 215.653 296.303 218.144 296.355C219.301 296.377 220.48 296.415 221.688 296.467C221.763 296.467 221.845 296.474 221.919 296.474C222.971 296.504 224.038 296.556 225.12 296.609C225.881 296.646 226.649 296.683 227.418 296.728C228.141 296.773 228.872 296.818 229.611 296.87C230.185 296.9 230.76 296.944 231.342 296.982C231.834 297.019 232.327 297.056 232.819 297.086C233.408 297.131 233.998 297.176 234.595 297.22C235.415 297.288 236.236 297.355 237.071 297.422C237.9 297.496 238.743 297.571 239.586 297.646C240.429 297.72 241.279 297.802 242.13 297.884C242.219 297.892 242.301 297.899 242.383 297.907C243.159 297.989 243.935 298.063 244.718 298.146C249.06 298.586 253.529 299.1 258.125 299.69C260.87 300.04 263.65 300.416 266.465 300.816C270.74 301.421 275.082 302.077 279.454 302.778C283.833 303.487 288.237 304.236 292.666 305.024C293.785 305.225 294.905 305.427 296.031 305.636C297.404 305.889 298.776 306.148 300.149 306.412C301.015 306.576 301.88 306.74 302.745 306.911C303.775 307.113 304.812 307.314 305.842 307.516C312.623 308.859 319.367 310.291 325.947 311.791C327.029 312.037 328.111 312.29 329.185 312.537C331.334 313.036 333.462 313.544 335.571 314.059C336.153 314.2 336.728 314.342 337.302 314.484C338.742 314.842 340.167 315.2 341.577 315.558V315.566C341.659 315.58 341.741 315.603 341.823 315.625C342.853 315.886 343.875 316.147 344.889 316.416C347.284 317.043 349.639 317.674 351.954 318.311C353.491 318.744 355.013 319.169 356.513 319.602C358.758 320.258 360.959 320.915 363.1 321.571C363.63 321.735 364.16 321.899 364.682 322.056C366.248 322.549 367.785 323.038 369.292 323.526C370.486 323.914 371.65 324.309 372.799 324.705C373.948 325.1 375.074 325.495 376.178 325.891C376.894 326.144 377.596 326.406 378.29 326.659C379.304 327.032 380.289 327.405 381.259 327.786C381.557 327.898 381.848 328.017 382.139 328.129C382.684 328.338 383.213 328.554 383.736 328.77C384.086 328.905 384.429 329.047 384.773 329.196C385.108 329.33 385.452 329.472 385.78 329.614C386.115 329.748 386.444 329.89 386.772 330.039C387.048 330.151 387.317 330.27 387.578 330.389C388.107 330.621 388.637 330.852 389.152 331.091C389.406 331.21 389.659 331.322 389.913 331.441L390.495 331.71C390.577 331.755 390.659 331.792 390.741 331.829C391.375 332.128 391.987 332.426 392.584 332.724C393.143 333.008 393.688 333.291 394.21 333.568C394.829 333.896 395.419 334.217 395.986 334.545C396.098 334.604 396.209 334.672 396.321 334.731C396.702 334.948 397.067 335.172 397.433 335.388C398.149 335.828 398.828 336.261 399.462 336.693C400.089 337.126 400.671 337.551 401.215 337.977C401.215 337.984 401.215 337.984 401.223 337.984C401.484 338.193 401.738 338.402 401.976 338.603C402.364 338.939 402.722 339.26 403.051 339.588C403.161 339.689 403.265 339.796 403.364 339.909C403.407 339.945 403.447 339.985 403.483 340.028C403.64 340.2 403.797 340.371 403.946 340.543C404.125 340.752 404.289 340.961 404.446 341.17C404.52 341.274 404.602 341.379 404.67 341.483C404.759 341.61 404.849 341.744 404.923 341.871C404.99 341.975 405.05 342.087 405.11 342.192C405.268 342.461 405.403 342.743 405.513 343.035C405.594 343.234 405.662 343.438 405.714 343.647C405.771 343.845 405.813 344.047 405.841 344.251Z" fill="#1E1E1E"/>
</g>
<defs>
<clipPath id="clip0_15_2536">
<rect width="587" height="426.928" fill="white"/>
</clipPath>
</defs>
</svg>
