<svg width="587" height="576" viewBox="0 0 587 576" fill="none" xmlns="http://www.w3.org/2000/svg">
<g clip-path="url(#clip0_15_2644)">
<path d="M63.7668 231.58H56.548C40.3724 231.58 27.2715 244.713 27.2715 260.929V422.15C27.2715 438.366 40.3724 451.5 56.548 451.5H156.008C172.183 451.5 185.284 438.366 185.284 422.15" stroke="#0F0F0F" stroke-width="1.1031" stroke-miterlimit="10" stroke-linecap="round" stroke-linejoin="round" stroke-dasharray="4.41 4.41"/>
<path d="M177.13 79.3375V47.5758C177.13 37.6586 185.151 29.6177 195.043 29.6177H324.314C334.207 29.6177 342.228 37.6586 342.228 47.5758" stroke="#0F0F0F" stroke-width="1.1031" stroke-miterlimit="10" stroke-linecap="round" stroke-linejoin="round" stroke-dasharray="4.41 4.41"/>
<path d="M293.434 576C434.82 576 549.436 559.92 549.436 540.084C549.436 520.248 434.82 504.167 293.434 504.167C152.048 504.167 37.4316 520.248 37.4316 540.084C37.4316 559.92 152.048 576 293.434 576Z" fill="#F5BF04"/>
<path opacity="0.5" d="M293.434 576C434.82 576 549.436 559.92 549.436 540.084C549.436 520.248 434.82 504.167 293.434 504.167C152.048 504.167 37.4316 520.248 37.4316 540.084C37.4316 559.92 152.048 576 293.434 576Z" fill="white"/>
<path d="M534.864 122.088V363.451C534.864 379.935 521.63 393.203 505.187 393.203H81.8142C65.3713 393.203 52.1367 379.935 52.1367 363.451V122.088C52.1367 121.418 52.1367 120.748 52.2704 119.944C53.3399 104.532 66.1734 92.3369 81.8142 92.3369H505.187C520.828 92.3369 533.661 104.532 534.731 119.944C534.864 120.748 534.864 121.418 534.864 122.088Z" fill="white" stroke="#0F0F0F" stroke-width="1.1031" stroke-miterlimit="10" stroke-linecap="round" stroke-linejoin="round"/>
<path d="M494.091 381.945H94.3802C79.0067 381.945 66.5742 369.482 66.5742 354.07V131.201H521.897V354.07C521.897 369.482 509.464 381.945 494.091 381.945Z" fill="#0F0F0F"/>
<path opacity="0.2" d="M521.897 131.201V354.07C521.897 369.482 509.598 381.945 494.358 381.945H94.1128C78.873 381.945 66.5742 369.482 66.5742 354.07V131.201H521.897Z" fill="white"/>
<path d="M534.731 120.078H52.2705C53.34 104.532 66.1735 92.3369 81.8143 92.3369H505.187C520.828 92.3369 533.661 104.532 534.731 120.078Z" fill="#F5BF04" stroke="#0F0F0F" stroke-width="1.1031" stroke-miterlimit="10"/>
<path d="M111.492 106.141C111.492 109.089 109.085 111.367 106.278 111.367C103.337 111.367 101.064 108.955 101.064 106.141C101.064 103.192 103.471 100.914 106.278 100.914C109.219 100.914 111.492 103.326 111.492 106.141Z" fill="#0F0F0F"/>
<path d="M133.683 106.141C133.683 109.089 131.277 111.367 128.469 111.367C125.528 111.367 123.256 108.955 123.256 106.141C123.256 103.192 125.662 100.914 128.469 100.914C131.41 100.914 133.683 103.326 133.683 106.141Z" fill="#0F0F0F"/>
<path d="M150.661 111.367C153.54 111.367 155.875 109.027 155.875 106.141C155.875 103.254 153.54 100.914 150.661 100.914C147.781 100.914 145.447 103.254 145.447 106.141C145.447 109.027 147.781 111.367 150.661 111.367Z" fill="#0F0F0F"/>
<path d="M521.897 131.201V354.07C521.897 369.482 509.464 381.945 494.091 381.945H94.3802C80.8782 381.945 69.6489 372.296 67.109 359.43C66.7079 357.688 66.5742 355.946 66.5742 354.07V131.201H521.897Z" stroke="#0F0F0F" stroke-width="1.1031" stroke-miterlimit="10"/>
<path d="M521.496 165.644C519.491 164.572 517.486 163.633 515.347 163.097L512.807 151.84H502.246L499.706 163.097C497.567 163.633 495.428 164.572 493.556 165.644L483.931 159.479L476.445 166.984L482.461 176.633C481.391 178.643 480.455 180.653 479.921 182.798L468.691 185.344V195.931L479.921 198.478C480.455 200.622 481.391 202.766 482.461 204.776L476.311 214.425L483.798 221.93L493.423 215.766C495.428 216.838 497.433 217.776 499.572 218.312L502.112 229.435H512.673L515.213 218.312C517.352 217.642 519.491 216.838 521.362 215.766L521.897 216.034V165.376L521.496 165.644ZM507.593 204.508C499.973 204.508 493.824 198.344 493.824 190.705C493.824 183.066 499.973 176.901 507.593 176.901C515.213 176.901 521.362 183.066 521.362 190.705C521.229 198.344 515.079 204.508 507.593 204.508Z" fill="#0F0F0F"/>
<path d="M330.196 176.499V154.118L306.668 148.892C305.331 144.335 303.593 139.912 301.321 135.758L304.128 131.201H193.038L195.845 135.624C193.573 139.778 191.701 144.201 190.498 148.757L166.97 153.984V176.365L190.498 181.591C191.701 186.148 193.573 190.57 195.845 194.725L182.878 215.095L198.653 230.909L218.972 217.91C223.116 220.188 227.528 222.064 232.073 223.27L237.287 246.857H259.612L264.825 223.27C269.371 221.93 273.782 220.188 277.793 217.91L298.112 230.909L313.887 215.095L301.053 194.725C303.326 190.57 305.197 186.148 306.401 181.591L330.196 176.499ZM248.65 194.189C232.742 194.189 219.774 181.189 219.774 165.241C219.774 149.294 232.742 136.294 248.65 136.294C264.558 136.294 277.525 149.294 277.525 165.241C277.525 181.189 264.558 194.189 248.65 194.189Z" fill="#0F0F0F"/>
<path d="M181.675 330.483L182.611 312.659L164.163 307.432C163.36 303.814 162.024 300.195 160.419 296.845L171.515 281.165L159.617 267.898L142.907 277.279C139.699 275.269 136.357 273.66 132.747 272.454L129.672 253.692L111.893 252.754L106.813 271.248C103.203 272.052 99.5939 273.392 96.2518 275.001L80.611 263.877L67.3764 275.805L76.8679 292.557C74.8626 295.773 73.2585 299.123 72.0553 302.742L66.708 303.68V327.803L70.5848 328.875C71.3869 332.493 72.7237 336.112 74.3279 339.462L66.708 350.183L67.2427 359.43L75.13 368.275L91.8403 358.894C95.0487 360.905 98.3908 362.647 102 363.853L105.075 382.079L105.209 382.883L122.988 383.821L123.523 382.079L128.202 365.327C131.945 364.523 135.421 363.183 138.763 361.575L154.27 372.698L167.505 360.771L158.147 344.019C160.152 340.802 161.756 337.452 162.959 333.833L181.675 330.483ZM134.485 302.742C125.929 293.227 111.492 292.557 102 301C92.5087 309.577 91.8403 324.05 100.262 333.565C108.818 343.081 123.256 343.751 132.747 335.308C142.239 326.865 143.041 312.257 134.485 302.742Z" fill="#0F0F0F"/>
<path d="M323.646 303.948C324.314 301.134 324.715 298.319 324.715 295.505L337.415 288.804L333.939 275.805L319.502 276.475C318.031 274.063 316.293 271.784 314.288 269.774L318.566 255.97L306.935 249.27L297.177 259.857C294.503 259.187 291.562 258.785 288.755 258.785L282.071 245.919L269.103 249.404L269.772 263.877C267.365 265.351 265.093 267.094 263.088 269.104L249.318 264.815L242.634 276.475L253.329 286.258C252.66 289.072 252.259 291.887 252.259 294.701L239.426 301.402L242.902 314.401L257.339 313.731C258.81 316.143 260.548 318.422 262.553 320.432L258.275 334.236L269.905 340.936L279.531 330.349C282.338 331.019 285.145 331.421 287.953 331.421L294.637 344.287L307.604 340.802L307.069 328.473L306.935 326.329C309.342 324.855 311.614 323.112 313.753 321.102L327.523 325.391L333.271 315.473L334.207 313.731L323.646 303.948ZM293.166 311.855C283.942 314.401 274.451 308.907 271.911 299.66C269.371 290.412 274.852 280.897 284.076 278.351C293.3 275.805 302.791 281.299 305.331 290.546C307.738 299.794 302.39 309.309 293.166 311.855Z" fill="#0F0F0F"/>
<path d="M471.766 326.731L474.707 308.906L456.66 301.67C456.259 297.917 455.323 294.165 454.12 290.546L467.087 276.073L456.66 261.331L438.746 268.97C435.805 266.557 432.597 264.547 429.121 262.939L428.052 243.507L410.272 240.558L403.053 258.516C399.31 258.919 395.567 259.857 391.957 261.063L377.52 248.063L362.815 258.516L370.434 276.341C368.296 279.021 366.558 281.835 365.087 284.784C364.82 285.186 364.686 285.588 364.419 285.99L345.035 287.062L342.094 304.886L345.035 306.092L360.141 312.123C360.542 315.875 361.344 319.628 362.681 323.246L349.714 337.72L360.141 352.462L378.054 344.823C380.995 347.235 384.204 349.245 387.68 350.853L388.749 370.152L406.529 373.1L413.748 355.276C417.491 354.874 421.234 353.936 424.843 352.73L439.281 365.729L453.986 355.142L446.366 337.184C448.772 334.235 450.778 330.885 452.516 327.535L471.766 326.731ZM421.902 325.926C411.475 333.431 396.904 331.019 389.417 320.566C381.931 310.113 384.337 295.505 394.765 288C405.192 280.495 419.763 282.907 427.25 293.361C434.736 303.948 432.33 318.422 421.902 325.926Z" fill="#0F0F0F"/>
<path d="M230.737 424.026H90.905C81.2798 424.026 73.3926 416.119 73.3926 406.47V212.415C73.3926 202.766 81.2798 194.859 90.905 194.859H230.737C240.362 194.859 248.249 202.766 248.249 212.415V406.47C248.249 416.119 240.496 424.026 230.737 424.026Z" fill="#F5BF04" stroke="#0F0F0F" stroke-width="1.1031" stroke-miterlimit="10"/>
<path opacity="0.2" d="M230.737 424.026H90.905C81.2798 424.026 73.3926 416.119 73.3926 406.47V212.415C73.3926 202.766 81.2798 194.859 90.905 194.859H230.737C240.362 194.859 248.249 202.766 248.249 212.415V406.47C248.249 416.119 240.496 424.026 230.737 424.026Z" fill="#0F0F0F"/>
<path d="M264.559 229.703V423.758C264.559 433.407 256.672 441.314 247.047 441.314H107.215C97.5894 441.314 89.7021 433.407 89.7021 423.758V229.703C89.7021 220.054 97.5894 212.147 107.215 212.147H247.047C256.672 212.147 264.559 220.054 264.559 229.703Z" fill="white" stroke="#0F0F0F" stroke-width="1.1031" stroke-miterlimit="10" stroke-linecap="round" stroke-linejoin="round"/>
<path d="M264.559 229.703V240.156H89.7021V229.703C89.7021 220.054 97.5894 212.147 107.215 212.147H247.047C256.672 212.147 264.559 220.054 264.559 229.703Z" fill="#F5BF04" stroke="#0F0F0F" stroke-width="1.1031" stroke-miterlimit="10"/>
<path d="M149.191 252.084H106.146V259.321H149.191V252.084Z" fill="#F5BF04"/>
<path d="M149.191 316.948H106.146V324.184H149.191V316.948Z" fill="#F5BF04"/>
<path d="M149.191 375.78H106.146V383.017H149.191V375.78Z" fill="#F5BF04"/>
<path d="M228.331 270.042H106.146V275.402H228.331V270.042Z" fill="#0F0F0F"/>
<path d="M206.274 280.227H106.146V285.453H206.274V280.227Z" fill="#0F0F0F"/>
<path d="M219.375 290.144H106.146V295.371H219.375V290.144Z" fill="#0F0F0F"/>
<path d="M219.375 300.195H106.146V305.422H219.375V300.195Z" fill="#0F0F0F"/>
<path d="M228.331 328.875H106.146V334.235H228.331V328.875Z" fill="#0F0F0F"/>
<path d="M206.274 339.06H106.146V344.287H206.274V339.06Z" fill="#0F0F0F"/>
<path d="M219.375 348.977H106.146V354.204H219.375V348.977Z" fill="#0F0F0F"/>
<path d="M228.331 393.47H106.146V398.831H228.331V393.47Z" fill="#0F0F0F"/>
<path d="M206.274 403.521H106.146V408.748H206.274V403.521Z" fill="#0F0F0F"/>
<path d="M219.375 413.573H106.146V418.799H219.375V413.573Z" fill="#0F0F0F"/>
<path d="M461.606 77.5952V155.994C461.606 167.52 452.249 176.901 440.752 176.901H260.548C249.051 176.901 239.693 167.52 239.693 155.994V77.5952C239.693 66.0698 249.051 56.6887 260.548 56.6887H440.752C452.249 56.6887 461.606 66.0698 461.606 77.5952Z" fill="white" stroke="#717171" stroke-width="1.1031" stroke-miterlimit="10"/>
<path d="M461.606 77.5952V79.3374H239.693V77.5952C239.693 66.0698 249.051 56.6887 260.548 56.6887H440.752C452.249 56.6887 461.606 66.0698 461.606 77.5952Z" fill="#F5BF04" stroke="#0F0F0F" stroke-width="1.1031" stroke-miterlimit="10"/>
<path d="M272.178 71.6985C270.975 72.9046 268.836 72.9046 267.633 71.6985C266.43 70.4923 266.43 68.3481 267.633 67.1419C268.836 65.9358 270.975 65.9358 272.178 67.1419C273.515 68.4821 273.515 70.4923 272.178 71.6985Z" fill="#0F0F0F"/>
<path d="M287.151 71.6985C285.948 72.9046 283.809 72.9046 282.605 71.6985C281.402 70.4923 281.402 68.3481 282.605 67.1419C283.809 65.9358 285.948 65.9358 287.151 67.1419C288.354 68.4821 288.354 70.4923 287.151 71.6985Z" fill="#0F0F0F"/>
<path d="M301.99 71.6985C300.786 72.9046 298.647 72.9046 297.444 71.6985C296.241 70.4923 296.241 68.3481 297.444 67.1419C298.647 65.9358 300.786 65.9358 301.99 67.1419C303.193 68.4821 303.193 70.4923 301.99 71.6985Z" fill="#0F0F0F"/>
<path d="M326.32 93.811H253.73V156.664H326.32V93.811Z" stroke="#0F0F0F" stroke-width="1.1031" stroke-miterlimit="10" stroke-linecap="round" stroke-linejoin="round" stroke-dasharray="4.41 4.41"/>
<path d="M421.1 93.811H337.549V98.2336H421.1V93.811Z" fill="#0F0F0F"/>
<path d="M401.583 102.924H337.549V107.347H401.583V102.924Z" fill="#0F0F0F"/>
<path d="M432.998 112.037H337.549V116.46H432.998V112.037Z" fill="#0F0F0F"/>
<path d="M418.828 121.016H337.549V125.439H418.828V121.016Z" fill="#0F0F0F"/>
<path d="M356.131 533.517C356.131 533.517 317.363 544.64 312.015 546.651C307.069 548.393 293.701 553.083 283.675 551.609C282.739 551.475 281.67 551.207 280.867 550.939C270.708 547.857 266.162 545.042 264.826 538.744C263.489 532.311 268.569 527.62 273.381 524.672C278.194 521.589 304.663 518.507 304.663 518.507L311.08 520.383L356.131 533.517Z" fill="#F5BF04"/>
<path d="M283.675 551.475C282.739 551.341 281.669 551.073 280.867 550.805C270.708 547.723 266.162 544.908 264.826 538.61C263.489 532.177 268.569 527.486 273.381 524.538C278.194 521.456 304.663 518.373 304.663 518.373L311.08 520.25C305.331 522.93 283.808 524.404 279.13 527.084C274.451 529.765 272.178 534.857 274.985 541.826C276.322 545.444 280.333 549.063 283.675 551.475Z" fill="white"/>
<path d="M350.249 535.125C350.249 535.125 321.106 542.63 309.609 547.589C298.113 552.413 276.055 554.557 268.168 544.506C260.28 534.589 267.232 525.878 275.119 524.002C283.006 522.125 298.781 519.043 307.47 520.249" stroke="#0F0F0F" stroke-width="1.1031" stroke-miterlimit="10" stroke-linecap="round" stroke-linejoin="round"/>
<path d="M284.21 550.939C284.21 550.939 269.371 542.764 274.317 531.373C277.926 522.93 297.711 524.806 307.47 520.115" stroke="#0F0F0F" stroke-width="1.1031" stroke-miterlimit="10" stroke-linecap="round" stroke-linejoin="round"/>
<path d="M474.172 553.351C473.771 557.372 472.434 561.124 468.424 563.537C465.75 565.145 462.007 566.083 456.526 565.949C442.89 565.815 417.357 556.032 417.357 556.032L393.428 542.764L405.86 523.064L409.202 517.703L418.025 519.713C418.025 519.713 425.244 523.868 432.597 527.084C439.949 530.435 457.729 531.105 464.012 536.197C470.295 541.156 474.84 546.651 474.172 553.351Z" fill="#F5BF04"/>
<path d="M474.172 553.351C473.771 557.372 472.434 561.124 468.424 563.537C469.226 560.454 469.761 556.166 467.755 551.609C465.082 545.578 456.392 540.352 444.896 539.414C433.533 538.476 424.71 533.115 420.164 530.703C416.555 528.826 409.069 524.806 405.86 523.064L409.202 517.703L418.025 519.713C418.025 519.713 425.244 523.868 432.597 527.084C439.949 530.435 457.729 531.105 464.012 536.197C470.295 541.156 474.841 546.651 474.172 553.351Z" fill="white"/>
<path d="M398.642 546.516C415.619 556.3 435.137 563.403 454.655 565.681C459.066 566.217 464.012 566.217 466.953 563C468.558 561.124 469.226 558.578 468.959 556.166C468.424 550.001 463.21 545.176 457.596 542.63C451.981 540.218 445.698 539.548 439.682 538.207C433.666 536.867 427.918 534.723 422.437 531.909C418.159 529.63 413.881 526.95 409.203 525.878C404.39 524.806 398.775 526.146 396.235 530.301" stroke="#0F0F0F" stroke-width="1.1031" stroke-miterlimit="10" stroke-linecap="round" stroke-linejoin="round"/>
<path d="M465.483 564.609C469.894 562.33 473.504 558.176 474.172 553.217C474.974 547.455 471.766 541.558 467.087 537.94C462.408 534.321 456.66 532.713 450.911 531.507C445.163 530.301 439.281 529.497 433.8 527.352C425.378 524.002 417.09 517.569 408.4 519.847" stroke="#0F0F0F" stroke-width="1.1031" stroke-miterlimit="10" stroke-linecap="round" stroke-linejoin="round"/>
<path d="M425.646 338.926L385.14 323.514L384.605 323.38C384.605 323.38 384.739 322.308 384.872 320.7C385.14 317.484 385.273 312.123 383.803 310.381C381.53 307.7 375.114 309.979 368.964 307.03C362.681 304.216 351.184 309.309 351.184 309.309C351.184 309.309 342.896 307.834 339.153 313.865C337.281 318.69 337.95 325.927 337.95 325.927C337.95 325.927 337.682 326.061 337.148 326.195C332.335 327.937 306.133 337.854 300.519 341.874C294.369 346.297 287.551 390.924 285.413 404.058C283.274 417.191 279.397 428.985 281.268 433.541C283.274 438.098 311.481 459.808 327.656 465.437C343.832 471.066 401.449 469.457 401.449 469.457C401.449 469.457 402.385 469.189 404.123 468.653C413.881 465.571 448.372 452.572 466.686 422.15C466.686 422.15 449.04 363.853 425.646 338.926ZM316.293 414.109C313.352 416.253 314.956 424.428 314.956 424.428L309.876 420.006L322.576 388.646L328.057 412.769C328.057 412.635 319.234 411.965 316.293 414.109ZM418.159 434.077C416.822 434.747 422.17 419.738 419.63 416.253C417.09 412.769 409.336 413.171 409.336 413.171L410.005 409.016C410.138 408.614 414.55 385.43 414.55 385.43L416.02 383.553C416.02 383.553 431.795 410.625 434.602 420.14C434.602 420.274 417.357 434.077 418.159 434.077Z" fill="#F5BF04"/>
<path d="M349.313 241.094L328.459 263.341C328.459 263.341 325.518 265.887 326.721 272.32C327.924 278.753 330.598 284.382 332.603 284.784C334.608 285.186 337.415 285.186 337.415 285.186C337.415 285.186 341.961 294.969 345.035 298.721C345.035 298.721 346.105 313.731 345.57 317.886C345.57 317.886 353.056 324.452 360.141 325.256C367.227 326.061 378.188 315.205 378.188 315.205L380.862 301.938C380.862 301.938 387.279 292.155 387.68 289.608C388.081 287.062 391.022 287.732 392.493 286.392C393.963 285.052 397.305 279.423 397.84 273.928C398.375 268.568 398.375 262.269 392.091 264.145C386.61 262.671 390.086 251.146 390.086 251.146L380.595 242.703L349.313 241.094Z" fill="white"/>
<path opacity="0.5" d="M385.273 323.38C385.006 324.184 384.605 324.988 384.204 325.793C380.728 332.359 365.756 344.689 365.756 344.689L361.21 330.751L358.67 344.689C353.59 342.545 338.351 329.277 338.351 329.277C338.351 329.277 337.816 328.071 337.147 326.061C337.682 325.927 337.95 325.793 337.95 325.793C337.95 325.793 337.281 318.556 339.153 313.731C342.762 307.7 351.184 309.175 351.184 309.175C351.184 309.175 362.681 304.082 368.964 306.896C375.247 309.711 381.664 307.566 383.803 310.247C386.075 312.927 384.738 323.246 384.738 323.246L385.273 323.38Z" fill="white"/>
<path opacity="0.2" d="M425.646 338.926L385.14 323.514L384.605 323.38C384.605 323.38 384.739 322.308 384.872 320.7L384.07 325.927L378.055 334.102C378.055 334.102 388.215 337.72 396.77 342.411C402.786 345.627 406.128 352.06 405.326 358.76L397.84 422.686L394.765 459.004L403.989 468.653C413.748 465.571 448.238 452.572 466.552 422.15C466.686 422.15 449.04 363.853 425.646 338.926ZM418.159 434.077C416.823 434.747 422.17 419.738 419.63 416.253C417.09 412.769 409.336 413.171 409.336 413.171L410.005 409.016C410.139 408.614 414.55 385.43 414.55 385.43L416.021 383.553C416.021 383.553 431.795 410.625 434.602 420.14C434.602 420.274 417.357 434.077 418.159 434.077Z" fill="#0F0F0F"/>
<path opacity="0.2" d="M330.73 416.253L324.447 395.213C324.447 395.213 313.218 356.616 305.465 347.101L307.47 374.306C307.47 374.306 300.786 406.738 294.636 416.387C288.487 426.036 287.15 428.449 294.636 428.449C302.123 428.449 320.303 442.922 320.303 442.922L318.966 430.861L330.73 416.253ZM314.956 424.428L309.876 420.006L322.576 388.646L328.057 412.769C328.057 412.769 319.368 412.099 316.427 414.243C313.352 416.253 314.956 424.428 314.956 424.428Z" fill="#0F0F0F"/>
<path d="M344.901 298.721C344.901 298.721 346.104 310.113 344.901 315.339" stroke="#0F0F0F" stroke-width="1.1031" stroke-miterlimit="10" stroke-linecap="round" stroke-linejoin="round"/>
<path d="M379.124 313.731C379.124 313.731 379.124 308.236 380.327 302.876" stroke="#0F0F0F" stroke-width="1.1031" stroke-miterlimit="10" stroke-linecap="round" stroke-linejoin="round"/>
<path d="M382.199 249.538C382.199 249.538 389.017 258.249 388.749 264.681C388.348 271.248 387.813 279.021 388.081 286.526C388.215 294.165 375.916 309.979 369.633 311.453C363.35 312.927 357.869 313.195 353.725 309.175C349.714 305.154 345.57 299.526 340.356 292.289C335.009 285.052 336.346 269.238 336.346 269.238" stroke="#0F0F0F" stroke-width="1.1031" stroke-miterlimit="10" stroke-linecap="round" stroke-linejoin="round"/>
<path d="M365.756 275.135C365.355 277.547 365.221 279.959 365.221 282.371C365.221 284.382 365.623 286.526 366.959 288C367.761 288.804 368.831 289.34 368.965 290.412C369.098 291.35 368.43 292.289 367.494 292.691C366.692 293.227 365.756 293.495 364.954 294.165" stroke="#0F0F0F" stroke-width="1.1031" stroke-miterlimit="10" stroke-linecap="round" stroke-linejoin="round"/>
<path d="M354.794 295.103C354.794 295.103 355.596 300.195 362.414 301.268" stroke="#0F0F0F" stroke-width="1.1031" stroke-miterlimit="10" stroke-linecap="round" stroke-linejoin="round"/>
<path d="M355.462 279.021C355.462 280.495 354.794 281.701 353.992 281.701C353.19 281.701 352.521 280.495 352.521 279.021C352.521 277.547 353.19 276.341 353.992 276.341C354.928 276.341 355.462 277.547 355.462 279.021Z" fill="#0F0F0F"/>
<path d="M375.916 279.691C375.916 281.165 375.247 282.371 374.445 282.371C373.643 282.371 372.975 281.165 372.975 279.691C372.975 278.217 373.643 277.011 374.445 277.011C375.381 277.011 375.916 278.217 375.916 279.691Z" fill="#0F0F0F"/>
<path d="M371.905 273.258C371.905 273.258 378.589 266.558 384.204 274.062" stroke="#0F0F0F" stroke-width="2.2062" stroke-miterlimit="10" stroke-linecap="round" stroke-linejoin="round"/>
<path d="M357.735 273.392C357.735 273.392 353.457 268.702 346.906 273.392" stroke="#0F0F0F" stroke-width="2.2062" stroke-miterlimit="10" stroke-linecap="round" stroke-linejoin="round"/>
<path d="M345.436 305.02C345.436 305.02 349.447 316.277 358.671 319.494C367.761 322.71 379.926 306.092 379.926 306.092L379.258 303.948C379.258 303.948 371.371 314.267 362.548 312.525C353.725 310.783 345.035 298.855 345.035 298.855L345.436 305.02Z" fill="#0F0F0F"/>
<path d="M337.282 284.784C337.282 284.784 331.801 286.66 330.464 282.505C328.993 278.217 324.047 267.094 328.459 263.341C332.736 259.589 336.212 268.3 336.212 268.3" stroke="#0F0F0F" stroke-width="1.1031" stroke-miterlimit="10" stroke-linecap="round" stroke-linejoin="round"/>
<path d="M388.081 287.062C388.081 287.062 393.161 288.134 394.632 283.846C396.102 279.557 401.048 268.434 396.637 264.681C392.359 260.929 388.883 269.64 388.883 269.64" stroke="#0F0F0F" stroke-width="1.1031" stroke-miterlimit="10" stroke-linecap="round" stroke-linejoin="round"/>
<path d="M336.212 279.021C337.683 278.887 340.223 277.547 341.025 276.207C341.827 274.866 342.094 273.392 342.362 271.918C342.896 269.104 343.164 266.155 343.164 263.341C343.164 262.269 343.164 261.063 343.431 259.991C343.832 258.919 344.5 257.846 345.303 257.042C347.174 254.764 349.447 252.888 351.318 250.61C353.056 248.331 354.393 245.383 353.992 242.569C353.992 242.569 366.291 253.826 384.071 250.342C393.562 248.465 402.786 240.022 401.717 229.569C401.316 225.817 398.508 223.136 395.033 222.198C390.354 220.992 386.076 223.538 381.798 225.147C374.044 228.095 366.424 223.002 358.537 222.198C351.853 221.528 343.565 222.332 340.089 229.033C340.089 229.033 327.924 230.507 322.71 240.424C317.363 250.342 327.523 264.145 327.523 264.145C327.523 264.145 331.533 259.187 336.747 269.238L336.212 279.021Z" fill="#0F0F0F"/>
<path d="M383.001 246.991C383.001 246.991 379.926 263.341 388.081 271.248C388.081 271.248 389.819 266.289 391.69 265.083C391.69 265.083 396.235 256.506 390.22 246.991C384.204 237.476 383.001 246.991 383.001 246.991Z" fill="#0F0F0F"/>
<path opacity="0.2" d="M397.973 228.363C396.77 232.92 393.027 236.404 388.615 238.146C377.252 242.837 366.29 237.61 354.927 236.672C345.703 235.868 335.41 244.177 334.741 253.826" stroke="white" stroke-width="1.1031" stroke-miterlimit="10" stroke-linecap="round" stroke-linejoin="round"/>
<path opacity="0.2" d="M327.79 251.146C327.924 243.641 332.87 236.404 339.822 233.59" stroke="white" stroke-width="1.1031" stroke-miterlimit="10" stroke-linecap="round" stroke-linejoin="round"/>
<path d="M342.361 313.731C342.361 313.731 349.848 322.04 360.007 325.792C360.007 325.792 373.643 321.906 380.461 312.391" stroke="#0F0F0F" stroke-width="1.1031" stroke-miterlimit="10" stroke-linecap="round" stroke-linejoin="round"/>
<path d="M356.197 289.974C362.237 287.197 364.888 280.037 362.118 273.982C359.347 267.927 352.205 265.27 346.165 268.047C340.125 270.824 337.474 277.984 340.244 284.039C343.015 290.094 350.157 292.752 356.197 289.974Z" stroke="#0F0F0F" stroke-width="1.1031" stroke-miterlimit="10" stroke-linecap="round" stroke-linejoin="round"/>
<path d="M379.494 290.98C386.089 290.168 390.778 284.15 389.968 277.539C389.158 270.928 383.155 266.226 376.56 267.038C369.965 267.85 365.276 273.868 366.086 280.48C366.896 287.091 372.899 291.792 379.494 290.98Z" stroke="#0F0F0F" stroke-width="1.1031" stroke-miterlimit="10" stroke-linecap="round" stroke-linejoin="round"/>
<path d="M344.902 309.309C344.902 309.309 341.292 310.113 339.153 313.865C337.014 317.618 338.351 329.411 338.351 329.411C338.351 329.411 349.313 340.266 358.671 344.823L361.478 329.277L365.756 344.823C365.756 344.823 380.194 334.504 384.204 325.927C384.204 325.927 385.541 315.875 384.204 312.525C382.867 309.175 379.926 309.309 379.926 309.309" stroke="#0F0F0F" stroke-width="1.1031" stroke-miterlimit="10" stroke-linecap="round" stroke-linejoin="round"/>
<path d="M327.79 413.171C327.79 413.171 323.512 384.357 317.764 372.564" stroke="#0F0F0F" stroke-width="1.1031" stroke-miterlimit="10" stroke-linecap="round" stroke-linejoin="round"/>
<path d="M305.465 347.101C305.465 347.101 310.946 354.74 314.288 361.977" stroke="#0F0F0F" stroke-width="1.1031" stroke-miterlimit="10" stroke-linecap="round" stroke-linejoin="round"/>
<path d="M418.159 368.544C419.63 362.781 421.234 357.822 422.838 354.472" stroke="#0F0F0F" stroke-width="1.1031" stroke-miterlimit="10" stroke-linecap="round" stroke-linejoin="round"/>
<path d="M409.203 413.171C409.203 413.171 412.278 393.471 416.021 377.121" stroke="#0F0F0F" stroke-width="1.1031" stroke-miterlimit="10" stroke-linecap="round" stroke-linejoin="round"/>
<path d="M414.55 385.429C417.491 381.543 421.769 378.595 426.448 377.254" stroke="#0F0F0F" stroke-width="1.1031" stroke-miterlimit="10" stroke-linecap="round" stroke-linejoin="round"/>
<path d="M384.738 323.246C384.738 323.246 409.603 333.163 425.779 338.926C425.779 338.926 445.564 357.554 466.819 422.15C466.819 422.15 447.435 454.984 410.405 465.437" stroke="#0F0F0F" stroke-width="1.1031" stroke-miterlimit="10" stroke-linecap="round" stroke-linejoin="round"/>
<path d="M416.688 435.149L434.602 420.14C434.602 420.14 444.093 412.903 453.852 417.861" stroke="#0F0F0F" stroke-width="1.1031" stroke-miterlimit="10" stroke-linecap="round" stroke-linejoin="round"/>
<path d="M416.021 383.687C416.021 383.687 430.859 405.532 434.602 420.274" stroke="#0F0F0F" stroke-width="1.1031" stroke-miterlimit="10" stroke-linecap="round" stroke-linejoin="round"/>
<path d="M315.09 425.232L309.876 420.274C309.876 420.274 302.123 418.934 293.3 424.83" stroke="#0F0F0F" stroke-width="1.1031" stroke-miterlimit="10" stroke-linecap="round" stroke-linejoin="round"/>
<path d="M309.877 420.274C309.877 420.274 316.427 398.831 322.711 387.842" stroke="#0F0F0F" stroke-width="1.1031" stroke-miterlimit="10" stroke-linecap="round" stroke-linejoin="round"/>
<path d="M337.95 325.927C337.95 325.927 302.123 339.462 298.647 343.349C295.172 347.235 281.803 422.686 281.402 431.263C281.135 439.036 308.941 456.324 322.844 463.561" stroke="#0F0F0F" stroke-width="1.1031" stroke-miterlimit="10" stroke-linecap="round" stroke-linejoin="round"/>
<path d="M467.622 313.731H426.715C421.902 313.731 418.025 309.845 418.025 305.02V281.031C418.025 276.207 421.902 272.32 426.715 272.32H467.622C472.434 272.32 476.311 276.207 476.311 281.031V305.02C476.445 309.845 472.568 313.731 467.622 313.731Z" fill="white" stroke="#0F0F0F" stroke-width="1.1031" stroke-miterlimit="10" stroke-linecap="round" stroke-linejoin="round"/>
<path d="M436.875 284.784L425.779 291.753L436.073 301" stroke="#0F0F0F" stroke-width="1.1031" stroke-miterlimit="10" stroke-linecap="round" stroke-linejoin="round"/>
<path d="M457.328 301.67L467.488 293.093L455.857 285.454" stroke="#0F0F0F" stroke-width="1.1031" stroke-miterlimit="10" stroke-linecap="round" stroke-linejoin="round"/>
<path d="M442.355 307.03L450.644 281.031" stroke="#0F0F0F" stroke-width="1.1031" stroke-miterlimit="10" stroke-linecap="round" stroke-linejoin="round"/>
<path d="M364.687 351.39C364.687 352.73 363.617 353.802 362.28 353.802C360.943 353.802 359.874 352.73 359.874 351.39C359.874 350.049 360.943 348.977 362.28 348.977C363.617 348.977 364.687 350.049 364.687 351.39Z" fill="#0F0F0F"/>
<path d="M406.262 477.633H324.715C323.646 477.633 322.844 476.829 322.844 475.756C322.844 474.684 323.646 473.88 324.715 473.88H406.262C407.331 473.88 408.133 474.684 408.133 475.756C408.133 476.694 407.197 477.633 406.262 477.633Z" fill="#0F0F0F"/>
<path d="M409.069 471.2L420.031 419.738C420.699 416.387 418.159 413.171 414.683 413.171H319.368C315.892 413.171 313.352 416.387 314.02 419.738L323.779 469.458C324.314 472.004 326.453 473.746 328.993 473.88L403.588 475.622C406.261 475.622 408.534 473.88 409.069 471.2Z" fill="white" stroke="#0F0F0F" stroke-width="1.1031" stroke-miterlimit="10" stroke-linecap="round" stroke-linejoin="round"/>
<path d="M374.311 442.788C374.311 446.943 370.969 450.427 366.691 450.427C362.413 450.427 359.071 447.077 359.071 442.788C359.071 438.5 362.413 435.149 366.691 435.149C370.969 435.149 374.311 438.634 374.311 442.788Z" fill="#0F0F0F"/>
<path d="M389.283 417.996H400.513" stroke="#0F0F0F" stroke-width="1.1031" stroke-miterlimit="10" stroke-linecap="round" stroke-linejoin="round"/>
<path d="M335.142 417.996H378.187" stroke="#0F0F0F" stroke-width="1.1031" stroke-miterlimit="10" stroke-linecap="round" stroke-linejoin="round"/>
<path d="M409.202 525.878L400.513 548.795C400.513 548.795 378.322 543.166 349.981 537.404C320.304 531.239 289.289 523.466 273.247 495.189C271.242 491.704 270.039 487.684 270.841 483.797C273.114 474.014 285.814 471.334 294.236 470.396C299.449 469.726 304.796 469.592 310.01 469.458C312.684 469.458 321.64 467.983 323.779 469.592C323.779 469.592 329.394 473.746 334.073 475.756C338.752 477.767 408.133 473.88 408.133 473.88C408.133 473.88 410.138 469.458 410.272 465.571C421.1 460.076 446.366 455.386 457.061 457.396C473.771 460.612 483.53 470.396 481.792 480.715C479.92 490.9 442.89 518.373 409.202 525.878Z" fill="#0F0F0F"/>
<path d="M409.202 525.878C409.202 525.878 388.08 520.249 370.969 508.59C353.724 496.931 340.356 483.395 316.293 486.209" stroke="white" stroke-width="1.1031" stroke-miterlimit="10" stroke-linecap="round" stroke-linejoin="round"/>
<path d="M366.959 505.776C377.787 502.693 385.808 495.591 394.498 488.756C403.722 481.519 413.481 474.684 424.042 469.323" stroke="white" stroke-width="1.1031" stroke-miterlimit="10" stroke-linecap="round" stroke-linejoin="round"/>
<path d="M363.216 281.031H366.424" stroke="#0F0F0F" stroke-width="1.1031" stroke-miterlimit="10" stroke-linecap="round" stroke-linejoin="round"/>
</g>
<defs>
<clipPath id="clip0_15_2644">
<rect width="587" height="576" fill="white"/>
</clipPath>
</defs>
</svg>
